<?xml version="1.0" encoding="UTF-8"?>
<svg version="1.1" xmlns="http://www.w3.org/2000/svg" width="1280" height="1280">
<path d="M0 0 C422.4 0 844.8 0 1280 0 C1280 422.4 1280 844.8 1280 1280 C857.6 1280 435.2 1280 0 1280 C0 857.6 0 435.2 0 0 Z " fill="#ffffff" transform="translate(0,0)"/>
<path d="M0 0 C1.38204383 0.00484369 1.38204383 0.00484369 2.79200774 0.00978523 C5.89212643 0.02188895 8.99215779 0.0412559 12.09223938 0.06056213 C14.30940052 0.07070189 16.52656373 0.08039589 18.74372864 0.0896759 C24.77437892 0.11618727 30.80498107 0.1489606 36.83559394 0.1828258 C43.13367518 0.21713878 49.43178225 0.24573775 55.72988892 0.27493286 C66.30462922 0.3247265 76.87934711 0.37806085 87.45405579 0.43409729 C98.34662299 0.49180842 109.23919761 0.54739351 120.13179016 0.60011292 C121.13871891 0.60498749 121.13871891 0.60498749 122.16598966 0.60996055 C125.53359362 0.6262501 128.90119778 0.64249779 132.26880205 0.65872467 C160.21169062 0.79351595 188.15453717 0.93574111 216.09736633 1.08229065 C216.09736633 12.63229065 216.09736633 24.18229065 216.09736633 36.08229065 C159.99736633 36.08229065 103.89736633 36.08229065 46.09736633 36.08229065 C46.09736633 72.71229065 46.09736633 109.34229065 46.09736633 147.08229065 C96.58736633 147.08229065 147.07736633 147.08229065 199.09736633 147.08229065 C199.09736633 158.63229065 199.09736633 170.18229065 199.09736633 182.08229065 C148.60736633 182.08229065 98.11736633 182.08229065 46.09736633 182.08229065 C46.09736633 220.03229065 46.09736633 257.98229065 46.09736633 297.08229065 C103.51736633 297.08229065 160.93736633 297.08229065 220.09736633 297.08229065 C220.09736633 308.63229065 220.09736633 320.18229065 220.09736633 332.08229065 C44.53736633 332.08229065 -131.02263367 332.08229065 -311.90263367 332.08229065 C-311.90263367 314.59229065 -311.90263367 297.10229065 -311.90263367 279.08229065 C-300.90263367 275.08229065 -300.90263367 275.08229065 -298.90263367 275.08229065 C-298.90263367 274.42229065 -298.90263367 273.76229065 -298.90263367 273.08229065 C-297.73087585 272.63498596 -296.55911804 272.18768127 -295.35185242 271.7268219 C-287.83866488 268.84274543 -280.37617432 265.94375824 -273.08232117 262.53541565 C-268.49088126 260.43711633 -263.85377404 258.44864837 -259.21513367 256.45729065 C-258.32334412 256.07266663 -257.43155457 255.6880426 -256.51274109 255.29176331 C-252.56014097 253.59794957 -248.60827746 251.94493747 -244.57450867 250.4533844 C-241.58065975 249.33546847 -238.72509592 248.13487035 -235.84013367 246.76979065 C-231.43311254 244.73718949 -226.9761599 242.86966762 -222.46513367 241.08229065 C-221.49978699 240.69955994 -221.49978699 240.69955994 -220.51493835 240.30909729 C-219.87717468 240.05636047 -219.23941101 239.80362366 -218.58232117 239.54322815 C-209.42131516 235.90605591 -200.40500634 231.98342767 -191.40873718 227.96046448 C-186.71958639 225.87015608 -182.01261378 223.86680668 -177.23075867 221.99635315 C-170.00574707 219.15968752 -162.88077124 216.08431458 -155.77763367 212.95729065 C-148.37790174 209.70950726 -140.95856895 206.50800246 -133.52763367 203.33229065 C-132.43434753 202.86033264 -131.3410614 202.38837463 -130.21464539 201.90211487 C-125.35174426 199.83196122 -120.58507309 197.91784955 -115.48857117 196.50416565 C-111.36110353 195.3438583 -108.43437564 193.54395319 -104.90263367 191.08229065 C-102.28762858 189.9114441 -99.60695349 188.96274427 -96.90263367 188.01979065 C-92.05307177 186.30147783 -87.49100102 184.43743865 -82.90263367 182.08229065 C-81.34869454 181.43629959 -79.78630815 180.81015216 -78.21513367 180.20729065 C-74.61510512 178.79414512 -71.09686892 177.27547366 -67.59013367 175.64479065 C-62.36971151 173.23192791 -57.04666383 171.18591716 -51.65263367 169.1955719 C-48.75704203 168.13107614 -48.75704203 168.13107614 -45.90263367 166.08229065 C-46.53169617 165.9121344 -47.16075867 165.74197815 -47.80888367 165.56666565 C-52.90510718 164.12375899 -57.5448856 162.46287312 -62.21122742 159.94947815 C-64.07109546 158.94201322 -64.07109546 158.94201322 -66.90263367 158.08229065 C-66.90263367 157.42229065 -66.90263367 156.76229065 -66.90263367 156.08229065 C-67.68638367 155.99979065 -68.47013367 155.91729065 -69.27763367 155.83229065 C-73.27047036 155.00618651 -76.73469719 153.62996064 -80.48857117 152.0705719 C-83.25309781 150.93881585 -86.0546316 149.98165972 -88.90263367 149.08229065 C-88.90263367 148.42229065 -88.90263367 147.76229065 -88.90263367 147.08229065 C-89.53169617 146.90053284 -90.16075867 146.71877502 -90.80888367 146.5315094 C-95.60133489 145.12408773 -100.3152554 143.63347339 -104.97294617 141.8283844 C-106.27412398 141.32529743 -107.58174602 140.83860916 -108.89482117 140.3674469 C-112.21163583 139.17365174 -115.26108933 137.89666182 -118.40263367 136.26979065 C-122.37849526 134.2152034 -126.51986032 132.68231007 -130.71513367 131.14479065 C-138.41004881 128.32088685 -145.87142727 125.17541705 -153.15263367 121.39479065 C-155.91848773 119.97270081 -155.91848773 119.97270081 -159.15263367 119.20729065 C-162.26521999 118.27351475 -164.62292361 117.26299757 -167.46513367 115.76979065 C-172.6970643 113.05397933 -178.10498436 111.18405361 -183.66825867 109.26197815 C-186.1779028 108.34662485 -188.43367721 107.39974079 -190.77763367 106.14479065 C-194.46241172 104.18944331 -198.30485994 102.76257916 -202.21513367 101.33229065 C-208.46127397 99.04729802 -214.59844609 96.56885557 -220.71513367 93.95729065 C-227.37390506 91.11596491 -234.0479195 88.42367616 -240.90263367 86.08229065 C-240.90263367 85.42229065 -240.90263367 84.76229065 -240.90263367 84.08229065 C-242.01638367 83.83479065 -243.13013367 83.58729065 -244.27763367 83.33229065 C-249.35855435 82.05760353 -254.08232551 80.1107781 -258.90263367 78.08229065 C-260.69409973 77.33181162 -262.48577891 76.58184116 -264.27763367 75.83229065 C-265.2766571 75.41334534 -266.27568054 74.99440002 -267.30497742 74.5627594 C-270.08200995 73.41998488 -272.8641225 72.29965333 -275.65653992 71.1955719 C-284.21266191 67.81206641 -292.68890125 64.40355116 -300.98075867 60.4065094 C-304.54716953 58.79018148 -308.23635761 57.45714417 -311.90263367 56.08229065 C-311.90263367 38.26229065 -311.90263367 20.44229065 -311.90263367 2.08229065 C-306.27499214 2.06682945 -306.27499214 2.06682945 -300.53366089 2.05105591 C-266.15614116 1.95615012 -231.77863847 1.85634517 -197.40114857 1.75117371 C-192.89863265 1.73740357 -188.3961166 1.72367656 -183.89360046 1.7099762 C-182.54900421 1.70588374 -182.54900421 1.70588374 -181.1772444 1.70170861 C-166.6489933 1.65759288 -152.1207344 1.61697328 -137.59246965 1.57763804 C-122.69322972 1.53722085 -107.79400427 1.49306441 -92.8947857 1.4454121 C-83.69577998 1.41610943 -74.49677538 1.38974893 -65.29775081 1.36711168 C-58.99588821 1.3513249 -52.69404335 1.3319172 -46.39220043 1.30962224 C-42.75242574 1.29685344 -39.11266474 1.28571931 -35.47287369 1.27887154 C-31.53274329 1.27141716 -27.59266345 1.2563576 -23.65255737 1.24050903 C-22.49401141 1.23953093 -21.33546544 1.23855282 -20.14181203 1.23754507 C-18.5653243 1.22933341 -18.5653243 1.22933341 -16.95698833 1.22095585 C-16.0467987 1.21829781 -15.13660907 1.21563976 -14.19883794 1.21290118 C-9.41448109 0.9407619 -4.92880334 -0.0386911 0 0 Z " fill="#ffffff" transform="translate(586.9026336669922,480.91770935058594)"/>
<path d="M0 0 C153.62365591 0 153.62365591 0 175 8 C176.51039896 8.55213178 178.02081628 9.10421331 179.53125 9.65625 C183.36743512 11.07082258 187.18688428 12.52444591 191 14 C191 14.66 191 15.32 191 16 C191.87269531 16.25910156 192.74539063 16.51820313 193.64453125 16.78515625 C197.01883063 18.00681761 199.68302735 19.48899263 202.6875 21.4375 C203.61949219 22.03433594 204.55148437 22.63117188 205.51171875 23.24609375 C207.59853683 24.71702203 209.23975732 26.17555394 211 28 C211.61875 28.28875 212.2375 28.5775 212.875 28.875 C215.79802115 30.42248178 217.68483314 32.64127718 220 35 C220.86238281 35.82757812 221.72476562 36.65515625 222.61328125 37.5078125 C238.63352146 53.04118578 238.63352146 53.04118578 240 61 C240.66 61 241.32 61 242 61 C242.24234375 61.50789062 242.4846875 62.01578125 242.734375 62.5390625 C244.34857661 65.85438427 245.93729889 68.91069841 248.0625 71.9375 C250.09256241 75.14630832 251.10939044 78.04035083 252.21484375 81.640625 C253.01422206 84.04273695 253.99133729 86.26997465 255.0625 88.5625 C256.59080115 91.91322819 257.64638785 95.15254158 258.4453125 98.76171875 C259.10441655 101.42134282 259.99725256 103.96668102 260.875 106.5625 C265.74803038 122.13064575 268.08738729 139.14345424 268.23828125 155.44140625 C268.24802979 156.31852264 268.25777832 157.19563904 268.26782227 158.09933472 C268.43297991 176.7953864 268.35715204 194.72027614 264 213 C263.70319336 214.329104 263.70319336 214.329104 263.40039062 215.68505859 C256.97796639 244.43527972 244.19490251 274.58747967 221 294 C220.34 294 219.68 294 219 294 C219 294.66 219 295.32 219 296 C215.53846154 299 215.53846154 299 213 299 C213 299.66 213 300.32 213 301 C210.76184409 302.63308203 208.5413923 304.11136873 206.1875 305.5625 C205.47698486 306.00287598 204.76646973 306.44325195 204.03442383 306.89697266 C195.68399621 311.95482187 186.93279599 316.08522033 178 320 C177.02804687 320.43183594 176.05609375 320.86367188 175.0546875 321.30859375 C169.39142221 323.58987773 163.52128189 324.8750306 157.5625 326.125 C156.8187915 326.28395752 156.07508301 326.44291504 155.30883789 326.60668945 C106.588681 336.14774111 40.03973863 330 0 330 C0 221.1 0 112.2 0 0 Z " fill="#ffffff" transform="translate(809,483)"/>
<path d="M0 0 C103.95 0 207.9 0 315 0 C315 12.21 315 24.42 315 37 C230.52 37 146.04 37 59 37 C59 37.66 59 38.32 59 39 C59.54527344 39.09796875 60.09054687 39.1959375 60.65234375 39.296875 C65.62799495 40.28349985 69.9756839 41.71711745 74.5625 43.8671875 C77.28449811 45.13221867 80.03927646 46.28921213 82.8125 47.4375 C83.82828125 47.85902344 84.8440625 48.28054688 85.890625 48.71484375 C87.94207141 49.56274057 89.99414247 50.40912786 92.046875 51.25390625 C96.88619988 53.25357547 101.68699644 55.29686792 106.4375 57.5 C111.4553836 59.80707292 116.56338504 61.78997307 121.7265625 63.74609375 C128.93987433 66.50918814 136.0309833 69.43226526 142.89575195 72.97680664 C145.10377877 74.05046256 147.3332527 74.97046878 149.6171875 75.87109375 C150.49745605 76.21970459 151.37772461 76.56831543 152.28466797 76.92749023 C153.18072754 77.28141846 154.07678711 77.63534668 155 78 C156.66701119 78.66580472 158.33368482 79.33245528 160 80 C160.825 80.33 161.65 80.66 162.5 81 C170 84 170 84 172.48486328 84.99414062 C174.20180724 85.68078488 175.91893791 86.36696242 177.63623047 87.05273438 C195.7912907 94.30523361 195.7912907 94.30523361 200.75 96.9375 C205.28429969 99.28022151 210.07674113 100.95191395 214.85644531 102.71411133 C222.37915753 105.49176857 229.89550742 108.32099469 237 112.0625 C242.07977893 114.69924965 247.55383949 116.29353637 253 118 C253 118.66 253 119.32 253 120 C253.51304687 120.13535156 254.02609375 120.27070312 254.5546875 120.41015625 C260.54194983 122.09344381 266.3290742 124.19624183 272.125 126.4375 C272.8763623 126.72568604 273.62772461 127.01387207 274.40185547 127.31079102 C278.09947794 128.75738768 281.67673301 130.30114667 285.2109375 132.11328125 C288.24766323 133.66848481 291.20174099 134.83381694 294.5 135.75 C295.3559375 135.99234375 296.211875 136.2346875 297.09375 136.484375 C297.7228125 136.65453125 298.351875 136.8246875 299 137 C299 137.66 299 138.32 299 139 C300.155 139.268125 301.31 139.53625 302.5 139.8125 C306.90191564 140.83437327 310.64595881 142.36723455 315 144 C315 156.54 315 169.08 315 182 C313.02 182.33 311.04 182.66 309 183 C309 183.66 309 184.32 309 185 C307.96101563 185.37511719 306.92203125 185.75023437 305.8515625 186.13671875 C298.6909878 188.75423975 291.81864078 191.47058121 285.0625 195.03125 C282.42433543 196.2703879 279.89648699 196.77132997 277 197 C277 197.66 277 198.32 277 199 C274.36 199.33 271.72 199.66 269 200 C269 200.66 269 201.32 269 202 C267.23141309 202.67260351 265.46003984 203.33788395 263.6875 204 C262.70136719 204.37125 261.71523438 204.7425 260.69921875 205.125 C258 206 258 206 255 206 C255 206.66 255 207.32 255 208 C252.37646482 209.00399524 249.75132205 210.00334445 247.125 211 C246.37863281 211.28617188 245.63226562 211.57234375 244.86328125 211.8671875 C239.2265625 214 239.2265625 214 237 214 C237 214.66 237 215.32 237 216 C234.36 216.33 231.72 216.66 229 217 C229 217.66 229 218.32 229 219 C227.23141309 219.67260351 225.46003984 220.33788395 223.6875 221 C222.70136719 221.37125 221.71523438 221.7425 220.69921875 222.125 C218 223 218 223 215 223 C215 223.66 215 224.32 215 225 C212.89828133 225.8394882 210.79353375 226.67139656 208.6875 227.5 C207.51574219 227.9640625 206.34398437 228.428125 205.13671875 228.90625 C202 230 202 230 199 230 C199 230.66 199 231.32 199 232 C197.81664062 232.44730469 196.63328125 232.89460937 195.4140625 233.35546875 C185.47286649 237.06628899 185.47286649 237.06628899 175.875 241.5625 C171.90808055 243.64715665 167.83214258 245.22823487 163.625 246.75 C156.42581776 249.36178033 149.48525244 252.4142853 142.52319336 255.59912109 C135.64824851 258.73585198 128.70233675 261.65522536 121.69921875 264.4921875 C119.28879426 265.47468365 116.88708007 266.47891538 114.49609375 267.5078125 C112.07532145 268.54103598 109.66012485 269.54055028 107.2109375 270.5 C106.57929688 270.7475 105.94765625 270.995 105.296875 271.25 C104.00884231 271.7526469 102.71976366 272.25262124 101.4296875 272.75 C97.71277359 274.21239236 94.4035242 275.92704818 91 278 C89.47822105 278.6142729 87.93584085 279.180629 86.375 279.6875 C85.61960937 279.93886719 84.86421875 280.19023438 84.0859375 280.44921875 C82 281 82 281 79 281 C79 281.66 79 282.32 79 283 C65.3667426 288.37129841 65.3667426 288.37129841 59 290 C59 290.66 59 291.32 59 292 C143.48 292 227.96 292 315 292 C315 304.21 315 316.42 315 329 C211.05 329 107.1 329 0 329 C0 311.51 0 294.02 0 276 C11 272 11 272 13 272 C13 271.34 13 270.68 13 270 C14.17175781 269.55269531 15.34351563 269.10539062 16.55078125 268.64453125 C24.06396878 265.76045478 31.52645935 262.86146759 38.8203125 259.453125 C43.41175241 257.35482568 48.04885963 255.36635772 52.6875 253.375 C53.57928955 252.99037598 54.4710791 252.60575195 55.38989258 252.20947266 C59.3424927 250.51565892 63.29435621 248.86264682 67.328125 247.37109375 C70.32197392 246.25317783 73.17753775 245.0525797 76.0625 243.6875 C80.46952113 241.65489884 84.92647377 239.78737697 89.4375 238 C90.40284668 237.61726929 90.40284668 237.61726929 91.38769531 237.22680664 C92.02545898 236.97406982 92.66322266 236.72133301 93.3203125 236.4609375 C102.48131851 232.82376526 111.49762733 228.90113702 120.49389648 224.87817383 C125.18304727 222.78786544 129.89001989 220.78451603 134.671875 218.9140625 C141.89688659 216.07739687 149.02186242 213.00202393 156.125 209.875 C163.52473192 206.62721661 170.94406472 203.42571181 178.375 200.25 C179.46828613 199.77804199 180.56157227 199.30608398 181.68798828 198.81982422 C186.55088941 196.74967057 191.31756057 194.8355589 196.4140625 193.421875 C200.54153013 192.26156765 203.46825803 190.46166254 207 188 C209.61500509 186.82915345 212.29568018 185.88045362 215 184.9375 C219.8495619 183.21918718 224.41163265 181.355148 229 179 C230.55393912 178.35400894 232.11632552 177.72786151 233.6875 177.125 C237.28752855 175.71185447 240.80576475 174.19318301 244.3125 172.5625 C249.53292216 170.14963726 254.85596984 168.10362651 260.25 166.11328125 C263.14559164 165.04878549 263.14559164 165.04878549 266 163 C265.3709375 162.82984375 264.741875 162.6596875 264.09375 162.484375 C258.99752648 161.04146834 254.35774807 159.38058247 249.69140625 156.8671875 C247.83153821 155.85972257 247.83153821 155.85972257 245 155 C245 154.34 245 153.68 245 153 C244.21625 152.9175 243.4325 152.835 242.625 152.75 C238.6321633 151.92389586 235.16793648 150.54766999 231.4140625 148.98828125 C228.64953586 147.8565252 225.84800207 146.89936907 223 146 C223 145.34 223 144.68 223 144 C222.3709375 143.81824219 221.741875 143.63648438 221.09375 143.44921875 C216.30129877 142.04179708 211.58737827 140.55118274 206.9296875 138.74609375 C205.62850968 138.24300678 204.32088765 137.75631851 203.0078125 137.28515625 C199.69099784 136.09136109 196.64154434 134.81437117 193.5 133.1875 C189.52413841 131.13291275 185.38277335 129.60001942 181.1875 128.0625 C173.49258485 125.2385962 166.03120639 122.0931264 158.75 118.3125 C155.98414593 116.89041016 155.98414593 116.89041016 152.75 116.125 C149.63741368 115.1912241 147.27971006 114.18070692 144.4375 112.6875 C139.20556936 109.97168868 133.79764931 108.10176296 128.234375 106.1796875 C125.72473087 105.2643342 123.46895645 104.31745014 121.125 103.0625 C117.44022194 101.10715266 113.59777373 99.68028851 109.6875 98.25 C103.44135969 95.96500737 97.30418757 93.48656492 91.1875 90.875 C84.5287286 88.03367426 77.85471417 85.34138551 71 83 C71 82.34 71 81.68 71 81 C69.88625 80.7525 68.7725 80.505 67.625 80.25 C62.54407932 78.97531288 57.82030815 77.02848745 53 75 C51.20853393 74.24952097 49.41685476 73.49955051 47.625 72.75 C46.62597656 72.33105469 45.62695312 71.91210938 44.59765625 71.48046875 C41.82062372 70.33769423 39.03851117 69.21736268 36.24609375 68.11328125 C27.68997176 64.72977576 19.21373242 61.32126052 10.921875 57.32421875 C7.35546414 55.70789083 3.66627606 54.37485352 0 53 C0 35.51 0 18.02 0 0 Z " fill="#2295F0" transform="translate(275,484)"/>
<path d="M0 0 C153.62365591 0 153.62365591 0 175 8 C176.51039896 8.55213178 178.02081628 9.10421331 179.53125 9.65625 C183.36743512 11.07082258 187.18688428 12.52444591 191 14 C191 14.66 191 15.32 191 16 C191.87269531 16.25910156 192.74539063 16.51820313 193.64453125 16.78515625 C197.01883063 18.00681761 199.68302735 19.48899263 202.6875 21.4375 C203.61949219 22.03433594 204.55148437 22.63117188 205.51171875 23.24609375 C207.59853683 24.71702203 209.23975732 26.17555394 211 28 C211.61875 28.28875 212.2375 28.5775 212.875 28.875 C215.79802115 30.42248178 217.68483314 32.64127718 220 35 C220.86238281 35.82757812 221.72476562 36.65515625 222.61328125 37.5078125 C238.63352146 53.04118578 238.63352146 53.04118578 240 61 C240.66 61 241.32 61 242 61 C242.24234375 61.50789062 242.4846875 62.01578125 242.734375 62.5390625 C244.34857661 65.85438427 245.93729889 68.91069841 248.0625 71.9375 C250.09256241 75.14630832 251.10939044 78.04035083 252.21484375 81.640625 C253.01422206 84.04273695 253.99133729 86.26997465 255.0625 88.5625 C256.59080115 91.91322819 257.64638785 95.15254158 258.4453125 98.76171875 C259.10441655 101.42134282 259.99725256 103.96668102 260.875 106.5625 C265.74803038 122.13064575 268.08738729 139.14345424 268.23828125 155.44140625 C268.24802979 156.31852264 268.25777832 157.19563904 268.26782227 158.09933472 C268.43297991 176.7953864 268.35715204 194.72027614 264 213 C263.70319336 214.329104 263.70319336 214.329104 263.40039062 215.68505859 C256.97796639 244.43527972 244.19490251 274.58747967 221 294 C220.34 294 219.68 294 219 294 C219 294.66 219 295.32 219 296 C215.53846154 299 215.53846154 299 213 299 C213 299.66 213 300.32 213 301 C210.76184409 302.63308203 208.5413923 304.11136873 206.1875 305.5625 C205.47698486 306.00287598 204.76646973 306.44325195 204.03442383 306.89697266 C195.68399621 311.95482187 186.93279599 316.08522033 178 320 C177.02804687 320.43183594 176.05609375 320.86367188 175.0546875 321.30859375 C169.39142221 323.58987773 163.52128189 324.8750306 157.5625 326.125 C156.8187915 326.28395752 156.07508301 326.44291504 155.30883789 326.60668945 C106.588681 336.14774111 40.03973863 330 0 330 C0 221.1 0 112.2 0 0 Z M39 35 C39 121.13 39 207.26 39 296 C123.73032801 301.10842862 123.73032801 301.10842862 194.6875 265.875 C200.65592748 259.6165181 205.30910313 252.23376762 210 245 C210.65053345 244.02305176 210.65053345 244.02305176 211.31420898 243.02636719 C214.36872909 238.33456887 216.60214801 233.61213639 218.5625 228.375 C218.8605957 227.58432129 219.15869141 226.79364258 219.46582031 225.97900391 C220.32764802 223.65844605 221.16867926 221.33163944 222 219 C222.40605469 217.865625 222.81210938 216.73125 223.23046875 215.5625 C234.78124504 179.44972814 232.7304192 129.29483066 215.35546875 95.4765625 C214.90816406 94.65929687 214.46085938 93.84203125 214 93 C213.20393494 91.39801148 212.41173317 89.79409196 211.625 88.1875 C211.08875 87.135625 210.5525 86.08375 210 85 C209.34 85 208.68 85 208 85 C207.01 82.03 207.01 82.03 206 79 C205.34 79 204.68 79 204 79 C203.90203125 78.42121094 203.8040625 77.84242188 203.703125 77.24609375 C202.85805921 74.54657804 201.64931075 73.14761288 199.75 71.0625 C199.16734375 70.41410156 198.5846875 69.76570312 197.984375 69.09765625 C197.32953125 68.40542969 196.6746875 67.71320313 196 67 C195.26652344 66.22140625 194.53304687 65.4428125 193.77734375 64.640625 C190.32324698 61.35656112 186.6309989 58.53150416 182.8125 55.6875 C181.72678711 54.86282227 181.72678711 54.86282227 180.61914062 54.02148438 C179.92626953 53.50263672 179.23339844 52.98378906 178.51953125 52.44921875 C177.89151611 51.97830811 177.26350098 51.50739746 176.61645508 51.0222168 C175.03703116 49.82184067 175.03703116 49.82184067 173 50 C173 49.34 173 48.68 173 48 C170.74714465 47.079362 168.48951409 46.17296262 166.2265625 45.27734375 C163.92445355 44.36597616 161.62816185 43.43985713 159.3359375 42.50390625 C158.01595915 41.98092666 156.69564628 41.4587906 155.375 40.9375 C153.56128906 40.20853516 153.56128906 40.20853516 151.7109375 39.46484375 C116.14133704 28.4046446 72.64010462 35 39 35 Z " fill="#2195F0" transform="translate(809,483)"/>
<path d="M0 0 C68.64 0 137.28 0 208 0 C208 11.22 208 22.44 208 34 C151.9 34 95.8 34 38 34 C38 70.63 38 107.26 38 145 C88.49 145 138.98 145 191 145 C191 156.55 191 168.1 191 180 C140.51 180 90.02 180 38 180 C38 217.95 38 255.9 38 295 C95.42 295 152.84 295 212 295 C212 306.55 212 318.1 212 330 C142.04 330 72.08 330 0 330 C0 221.1 0 112.2 0 0 Z " fill="#2195F1" transform="translate(595,483)"/>
<path d="M0 0 C68.64 0 137.28 0 208 0 C208 11.22 208 22.44 208 34 C151.9 34 95.8 34 38 34 C38 33.67 38 33.34 38 33 C41.98805135 32.05377158 45.69534002 31.8765938 49.78938293 31.87974548 C50.45927409 31.87889106 51.12916525 31.87803663 51.81935614 31.87715632 C54.05643745 31.87551364 56.29344321 31.88100297 58.53051758 31.88647461 C60.13714598 31.88675677 61.74377451 31.88659818 63.35040283 31.8860321 C67.70741712 31.88574525 72.06440386 31.8916239 76.42141175 31.89860606 C80.97647096 31.90485823 85.5315308 31.90544488 90.08659363 31.90663147 C98.71022124 31.90973928 107.33383617 31.91794528 115.9574582 31.92798096 C125.77600713 31.93915915 135.59455667 31.94465685 145.41311038 31.94967639 C165.6087489 31.96012834 185.80437004 31.97846701 206 32 C206 22.1 206 12.2 206 2 C138.68 2 71.36 2 2 2 C2 109.58 2 217.16 2 328 C70.64 328 139.28 328 210 328 C210 317.77 210 307.54 210 297 C153.24 296.67 96.48 296.34 38 296 C38 295.67 38 295.34 38 295 C95.42 295 152.84 295 212 295 C212 306.55 212 318.1 212 330 C142.04 330 72.08 330 0 330 C0 221.1 0 112.2 0 0 Z " fill="#3088CF" transform="translate(595,483)"/>
<path d="M0 0 C1.38204383 0.00484369 1.38204383 0.00484369 2.79200774 0.00978523 C5.89212643 0.02188895 8.99215779 0.0412559 12.09223938 0.06056213 C14.30940052 0.07070189 16.52656373 0.08039589 18.74372864 0.0896759 C24.77437892 0.11618727 30.80498107 0.1489606 36.83559394 0.1828258 C43.13367518 0.21713878 49.43178225 0.24573775 55.72988892 0.27493286 C66.30462922 0.3247265 76.87934711 0.37806085 87.45405579 0.43409729 C98.34662299 0.49180842 109.23919761 0.54739351 120.13179016 0.60011292 C121.13871891 0.60498749 121.13871891 0.60498749 122.16598966 0.60996055 C125.53359362 0.6262501 128.90119778 0.64249779 132.26880205 0.65872467 C160.21169044 0.79351595 188.15453838 0.93553773 216.09736633 1.08229065 C216.09736633 1.41229065 216.09736633 1.74229065 216.09736633 2.08229065 C147.45736633 2.08229065 78.81736633 2.08229065 8.09736633 2.08229065 C8.09736633 110.65229065 8.09736633 219.22229065 8.09736633 331.08229065 C6.44736633 331.41229065 4.79736633 331.74229065 3.09736633 332.08229065 C3.09736633 319.87229065 3.09736633 307.66229065 3.09736633 295.08229065 C3.42736633 295.08229065 3.75736633 295.08229065 4.09736633 295.08229065 C4.42736633 305.97229065 4.75736633 316.86229065 5.09736633 328.08229065 C5.09736633 233.37229065 5.09736633 138.66229065 5.09736633 41.08229065 C-78.06263367 41.41229065 -161.22263367 41.74229065 -246.90263367 42.08229065 C-246.90263367 42.74229065 -246.90263367 43.40229065 -246.90263367 44.08229065 C-248.88263367 43.42229065 -250.86263367 42.76229065 -252.90263367 42.08229065 C-252.90263367 41.42229065 -252.90263367 40.76229065 -252.90263367 40.08229065 C-168.42263367 40.08229065 -83.94263367 40.08229065 3.09736633 40.08229065 C3.09736633 27.87229065 3.09736633 15.66229065 3.09736633 3.08229065 C-100.85263367 3.08229065 -204.80263367 3.08229065 -311.90263367 3.08229065 C-311.90263367 2.75229065 -311.90263367 2.42229065 -311.90263367 2.08229065 C-311.26898193 2.0805544 -310.63533019 2.07881815 -309.98247689 2.07702929 C-272.45534997 1.97407688 -234.92824116 1.86598079 -197.40114857 1.75117371 C-192.89863265 1.73740357 -188.3961166 1.72367656 -183.89360046 1.7099762 C-182.54900421 1.70588374 -182.54900421 1.70588374 -181.1772444 1.70170861 C-166.6489933 1.65759288 -152.1207344 1.61697328 -137.59246965 1.57763804 C-122.69322972 1.53722085 -107.79400427 1.49306441 -92.8947857 1.4454121 C-83.69577998 1.41610943 -74.49677538 1.38974893 -65.29775081 1.36711168 C-58.99588821 1.3513249 -52.69404335 1.3319172 -46.39220043 1.30962224 C-42.75242574 1.29685344 -39.11266474 1.28571931 -35.47287369 1.27887154 C-31.53274329 1.27141716 -27.59266345 1.2563576 -23.65255737 1.24050903 C-22.49401141 1.23953093 -21.33546544 1.23855282 -20.14181203 1.23754507 C-18.5653243 1.22933341 -18.5653243 1.22933341 -16.95698833 1.22095585 C-16.0467987 1.21829781 -15.13660907 1.21563976 -14.19883794 1.21290118 C-9.41448109 0.9407619 -4.92880334 -0.0386911 0 0 Z " fill="#052442" transform="translate(586.9026336669922,480.91770935058594)"/>
<path d="M0 0 C50.49 0 100.98 0 153 0 C153 0.66 153 1.32 153 2 C103.17 2 53.34 2 2 2 C2.33 38.63 2.66 75.26 3 113 C87.15 113.495 87.15 113.495 173 114 C173 114.33 173 114.66 173 115 C115.91 115 58.82 115 0 115 C0 77.05 0 39.1 0 0 Z " fill="#000E28" transform="translate(633,663)"/>
<path d="M0 0 C144 1 144 1 145 2 C147.32817964 2.36760731 149.6618385 2.70241581 152 3 C152 3.66 152 4.32 152 5 C146.72 4.67 141.44 4.34 136 4 C69.175 3.505 69.175 3.505 1 3 C1 111.9 1 220.8 1 333 C0.67 333 0.34 333 0 333 C0 223.11 0 113.22 0 0 Z " fill="#00254A" transform="translate(808,480)"/>
<path d="M0 0 C3.24208567 0.35049575 4.61527704 0.56221181 6.8125 3.0625 C7.204375 3.701875 7.59625 4.34125 8 5 C8.33 4.34 8.66 3.68 9 3 C10.9609375 2.55078125 10.9609375 2.55078125 13.375 2.3125 C14.56222656 2.18294922 14.56222656 2.18294922 15.7734375 2.05078125 C18 2 18 2 21 3 C22.010625 2.814375 23.02125 2.62875 24.0625 2.4375 C25.031875 2.293125 26.00125 2.14875 27 2 C29 4 29 4 29.1875 6.5625 C29 9 29 9 28 10 C24.37940768 10.29356154 22.12296038 9.85064319 19 8 C18.34 8.99 17.68 9.98 17 11 C12.82846941 11.3148325 9.05846056 10.98386923 5 10 C5 10.66 5 11.32 5 12 C2.22890693 12.05392397 -0.54113818 12.09363455 -3.3125 12.125 C-4.09818359 12.14175781 -4.88386719 12.15851562 -5.69335938 12.17578125 C-6.45068359 12.18222656 -7.20800781 12.18867187 -7.98828125 12.1953125 C-9.03302612 12.21102295 -9.03302612 12.21102295 -10.09887695 12.22705078 C-12 12 -12 12 -15 10 C-14.125 3.25 -14.125 3.25 -13 1 C-7.375 0.75 -7.375 0.75 -4 3 C-3.01 3 -2.02 3 -1 3 C-0.67 2.01 -0.34 1.02 0 0 Z " fill="#020F2A" transform="translate(777,947)"/>
<path d="M0 0 C18.75803679 0.10709821 37.51603154 0.21983392 56.27399349 0.33933926 C64.98302283 0.3946913 73.69205625 0.44817649 82.40112305 0.49731445 C89.98916313 0.54013209 97.5771728 0.58640386 105.16516596 0.63687855 C109.18545333 0.66349907 113.20573459 0.68835254 117.22605705 0.70907402 C121.00576939 0.72860982 124.78542375 0.75274422 128.56508446 0.78049088 C129.9562907 0.78987757 131.34750968 0.79754699 132.7387352 0.80341911 C134.63016497 0.8116528 136.5215625 0.82651843 138.41294861 0.84178162 C140.0044242 0.85146044 140.0044242 0.85146044 141.6280508 0.8613348 C144 1 144 1 145 2 C147.32817964 2.36760731 149.6618385 2.70241581 152 3 C152 3.66 152 4.32 152 5 C151.20827393 4.93148331 150.41654785 4.86296661 149.60083008 4.79237366 C135.39121839 3.72933047 121.15660861 3.77669649 106.91534042 3.69667697 C103.14641893 3.67454359 99.37753421 3.64729104 95.60864258 3.62062073 C88.49766948 3.57105818 81.38667558 3.52598698 74.27566242 3.48259836 C66.16901258 3.4329109 58.06239969 3.37811148 49.95578575 3.32291877 C33.30389138 3.20965942 16.6519629 3.1027023 0 3 C0 2.01 0 1.02 0 0 Z " fill="#00122A" transform="translate(808,480)"/>
<path d="M0 0 C-2.81637036 2.81637036 -5.65791968 2.41672127 -9.4375 2.5625 C-14.79409265 2.77434943 -14.79409265 2.77434943 -20 4 C-21.72520221 4.10168777 -23.45401947 4.14627654 -25.18217468 4.15821838 C-26.25489624 4.1680072 -27.3276178 4.17779602 -28.43284607 4.18788147 C-29.60960403 4.19363693 -30.786362 4.1993924 -31.9987793 4.20532227 C-33.23792084 4.21522186 -34.47706238 4.22512146 -35.75375366 4.23532104 C-39.15222283 4.26151655 -42.55066841 4.2833754 -45.94917655 4.30332303 C-49.50063338 4.32518824 -53.05204749 4.35257431 -56.60346985 4.37937927 C-63.32883876 4.42929892 -70.05423139 4.47424045 -76.77964669 4.51740164 C-84.43618883 4.56678023 -92.0926881 4.62169605 -99.74918878 4.67708123 C-115.49941958 4.79089011 -131.24968979 4.89773153 -147 5 C-147 4.01 -147 3.02 -147 2 C-146.35745931 1.99576806 -145.71491861 1.99153612 -145.05290699 1.98717594 C-129.36767422 1.88355467 -113.68248574 1.77487214 -97.99732685 1.66066074 C-90.4118882 1.60554755 -82.82644486 1.55210342 -75.2409668 1.50268555 C-68.62406287 1.4595734 -62.00719051 1.41323077 -55.39033574 1.36312145 C-51.89169202 1.33673612 -48.39305368 1.31189201 -44.89437294 1.29092598 C-40.9742173 1.26737338 -37.05413512 1.2366034 -33.1340332 1.20532227 C-31.42282539 1.19668907 -31.42282539 1.19668907 -29.67704773 1.18788147 C-23.01936162 1.12789731 -16.43658603 0.7942792 -9.80314922 0.21763515 C-6.51579006 -0.03759383 -3.29441367 -0.07661427 0 0 Z " fill="#00142F" transform="translate(956,811)"/>
<path d="M0 0 C83.49 0 166.98 0 253 0 C249.39477877 1.80261062 248.43419623 2.2496594 244.728405 2.23047829 C243.45198611 2.23122634 243.45198611 2.23122634 242.14978099 2.2319895 C241.21982287 2.22227287 240.28986475 2.21255624 239.33172607 2.20254517 C238.3400887 2.20017046 237.34845133 2.19779576 236.32676435 2.1953491 C232.99474741 2.18490925 229.66299361 2.16002923 226.33105469 2.13525391 C223.94626217 2.12483076 221.56146564 2.11529498 219.17666626 2.10658264 C213.36716533 2.08309602 207.55776967 2.05033559 201.74833915 2.01351692 C194.9886794 1.971174 188.22898215 1.940219 181.46925917 1.90998094 C169.4143552 1.85575367 157.35951596 1.79251984 145.3046875 1.72363281 C133.59442196 1.65673404 121.8841464 1.59407035 110.17382812 1.53710938 C109.45202609 1.53359693 108.73022405 1.53008449 107.98654923 1.52646561 C104.36548686 1.5088709 100.74442409 1.49135953 97.12336111 1.47388959 C67.08216807 1.32884704 37.04106817 1.16904238 7 1 C7.66 2.32 8.32 3.64 9 5 C7.02 4.34 5.04 3.68 3 3 C3 2.34 3 1.68 3 1 C2.01 0.67 1.02 0.34 0 0 Z " fill="#00030F" transform="translate(337,522)"/>
<path d="M0 0 C1.4634118 0.09102622 2.93030293 0.13352311 4.39653397 0.1386652 C5.27534705 0.14413964 6.15416014 0.14961409 7.05960393 0.15525442 C8.50123249 0.15672158 8.50123249 0.15672158 9.97198486 0.15821838 C11.50844355 0.16562535 11.50844355 0.16562535 13.0759418 0.17318195 C16.51839965 0.18857638 19.96083881 0.19692288 23.40332031 0.20532227 C25.86693487 0.21489926 28.33054777 0.22490923 30.79415894 0.23532104 C36.10340073 0.2567823 41.41263993 0.27522283 46.72190094 0.29092598 C54.39820635 0.31363532 62.07448428 0.34177667 69.75076637 0.37124526 C82.20492586 0.41890812 94.65909659 0.46217584 107.11328125 0.50268555 C119.21159744 0.54204712 131.30990364 0.58347493 143.40820312 0.62768555 C144.15390113 0.63040982 144.89959913 0.63313409 145.66789404 0.63594092 C149.40882944 0.6496205 153.14976469 0.66334076 156.89069986 0.67708123 C187.92711263 0.79102549 218.96354634 0.89776625 250 1 C250 1.33 250 1.66 250 2 C165.52 2 81.04 2 -6 2 C-6 1.34 -6 0.68 -6 0 C-3.45337487 -1.27331257 -2.69184681 -0.71518505 0 0 Z " fill="#000823" transform="translate(340,774)"/>
<path d="M0 0 C2.8125 -0.25 2.8125 -0.25 6 0 C7.9375 1.6875 7.9375 1.6875 9 4 C8.75925978 7.37036311 8.41201979 8.58798021 6 11 C2.26703674 11.38286803 1.22373677 11.14915785 -2 9 C-2.99 9.33 -3.98 9.66 -5 10 C-4.91621094 10.71027344 -4.83242188 11.42054688 -4.74609375 12.15234375 C-4.64425781 13.07144531 -4.54242187 13.99054687 -4.4375 14.9375 C-4.33308594 15.85402344 -4.22867188 16.77054688 -4.12109375 17.71484375 C-4.08113281 18.46894531 -4.04117188 19.22304688 -4 20 C-5 21 -5 21 -8.0625 21.0625 C-9.031875 21.041875 -10.00125 21.02125 -11 21 C-12.26264601 16.70700357 -11.62950412 14.12168689 -10 10 C-10.66 9.34 -11.32 8.68 -12 8 C-12.1875 5.4375 -12.1875 5.4375 -12 3 C-11 2 -11 2 -7.625 1.875 C-4 2 -4 2 -1 3 C-0.67 2.01 -0.34 1.02 0 0 Z " fill="#020D25" transform="translate(691,912)"/>
<path d="M0 0 C0 0.66 0 1.32 0 2 C-13.96637483 6.45403606 -26.59538837 7.68697263 -41.19921875 7.48828125 C-43.25713734 7.47892545 -45.31506727 7.47182248 -47.3730011 7.46684265 C-52.72095928 7.44799032 -58.06820993 7.39908431 -63.41589355 7.34332275 C-68.90021195 7.2916534 -74.38464762 7.26922804 -79.86914062 7.24414062 C-90.5797335 7.19093869 -101.28980732 7.10589886 -112 7 C-112 6.01 -112 5.02 -112 4 C-110.97428894 4.00222061 -109.94857788 4.00444122 -108.89178467 4.00672913 C-99.1828692 4.02708012 -89.47395812 4.04202944 -79.76502609 4.05181217 C-74.77465673 4.05701077 -69.7843047 4.06405296 -64.79394531 4.07543945 C-59.96990033 4.08637645 -55.14587193 4.09229956 -50.32181549 4.09487724 C-48.48961374 4.09671213 -46.65741281 4.10029484 -44.8252182 4.10573006 C-26.98871687 4.41310739 -26.98871687 4.41310739 -9.5 1.4375 C-6.03410324 0.46388115 -3.65505738 0 0 0 Z " fill="#3090DD" transform="translate(960,774)"/>
<path d="M0 0 C0.125 5.75 0.125 5.75 -1 8 C-1.66 8 -2.32 8 -3 8 C-3 8.66 -3 9.32 -3 10 C-1.68 10.66 -0.36 11.32 1 12 C1.04241723 14.33294775 1.04092937 16.66702567 1 19 C0 20 0 20 -2.03125 20.1328125 C-2.8459375 20.13023437 -3.660625 20.12765625 -4.5 20.125 C-5.3146875 20.12757813 -6.129375 20.13015625 -6.96875 20.1328125 C-9 20 -9 20 -10 19 C-10.04092937 16.66702567 -10.04241723 14.33294775 -10 12 C-9.34 12 -8.68 12 -8 12 C-8.495 10.4221875 -8.495 10.4221875 -9 8.8125 C-9.83966782 5.61126643 -10.19750904 3.2588992 -10 0 C-6.42355152 -1.2380014 -3.66305234 -0.74926071 0 0 Z " fill="#010B25" transform="translate(640,938)"/>
<path d="M0 0 C3 1 3 1 4.24609375 3.08984375 C7.27478593 10.32891457 9.17282739 17.42167171 10.65600586 25.11889648 C11.04694614 27.09143546 11.51675361 29.04802222 12 31 C12.66 31.33 13.32 31.66 14 32 C16.5677557 43.54438938 16.28239528 55.59042635 16.20581055 67.34667969 C16.18743785 70.2598543 16.18530256 73.17271061 16.18554688 76.0859375 C16.13905713 101.11793529 16.13905713 101.11793529 13 112 C12.67 112 12.34 112 12 112 C11.91295586 106.99496222 12.167513 102.44867275 13 97.5 C17.49472328 66.17788655 13.6653734 32.2272104 0.96411133 3.25683594 C0 1 0 1 0 0 Z " fill="#3182C3" transform="translate(1023,576)"/>
<path d="M0 0 C0.88494141 -0.01224609 1.76988281 -0.02449219 2.68164062 -0.03710938 C3.52791016 -0.03904297 4.37417969 -0.04097656 5.24609375 -0.04296875 C6.02525146 -0.04707764 6.80440918 -0.05118652 7.60717773 -0.05541992 C9.5625 0.1875 9.5625 0.1875 11.5625 2.1875 C11.375 4.6875 11.375 4.6875 10.5625 7.1875 C7.27820724 9.37702851 6.35283543 9.46484162 2.5625 9.1875 C1.94375 9.001875 1.325 8.81625 0.6875 8.625 C-1.67901856 8.00876399 -1.67901856 8.00876399 -5.0625 8.75 C-6.733125 8.9665625 -6.733125 8.9665625 -8.4375 9.1875 C-10.4375 7.1875 -10.4375 7.1875 -10.625 4.125 C-10.24207472 -1.87416276 -4.90300425 0.00355548 0 0 Z " fill="#04132F" transform="translate(570.4375,924.8125)"/>
<path d="M0 0 C0.94875 0.04125 1.8975 0.0825 2.875 0.125 C4.52997356 3.43494713 3.97584335 7.11623 3.9375 10.75 C3.93298828 11.55179688 3.92847656 12.35359375 3.92382812 13.1796875 C3.91203168 15.16149006 3.89409605 17.14325433 3.875 19.125 C-2.875 20.25 -2.875 20.25 -5.125 19.125 C-5.17880578 16.33307795 -5.21857669 13.5421859 -5.25 10.75 C-5.26675781 9.9559375 -5.28351562 9.161875 -5.30078125 8.34375 C-5.31835473 6.27007985 -5.22835168 4.19616759 -5.125 2.125 C-3.125 0.125 -3.125 0.125 0 0 Z " fill="#03122F" transform="translate(731.125,924.875)"/>
<path d="M0 0 C0.66 0 1.32 0 2 0 C2 17.49 2 34.98 2 53 C5.63 53.99 9.26 54.98 13 56 C16.48828125 57.53515625 16.48828125 57.53515625 19.3125 59.0625 C23.1482039 61.11902337 26.83709638 62.71484955 31 64 C31 64.33 31 64.66 31 65 C28.69 65 26.38 65 24 65 C24 64.34 24 63.68 24 63 C23.319375 62.89429688 22.63875 62.78859375 21.9375 62.6796875 C18.41573155 61.86481022 15.316472 60.56166136 12 59.125 C10.80375 58.61195313 9.6075 58.09890625 8.375 57.5703125 C2.42516198 54.80198509 2.42516198 54.80198509 0 53 C-0.60127258 50.62715149 -0.60127258 50.62715149 -0.56762695 47.79418945 C-0.5672493 46.73331619 -0.56687164 45.67244293 -0.56648254 44.579422 C-0.54067612 43.43559555 -0.51486969 42.2917691 -0.48828125 41.11328125 C-0.48120651 39.94113571 -0.47413177 38.76899017 -0.46684265 37.56132507 C-0.43881479 33.81107228 -0.37605598 30.06230287 -0.3125 26.3125 C-0.2874282 23.77280799 -0.2646131 21.23309262 -0.24414062 18.69335938 C-0.18896039 12.46173196 -0.10524887 6.23097193 0 0 Z " fill="#07223F" transform="translate(273,484)"/>
<path d="M0 0 C5.625 -0.25 5.625 -0.25 9 2 C9.66 2 10.32 2 11 2 C11.33 4.64 11.66 7.28 12 10 C10.23086176 10.22226864 8.45955629 10.42733873 6.6875 10.625 C5.20830078 10.79902344 5.20830078 10.79902344 3.69921875 10.9765625 C1 11 1 11 -2 9 C-1.125 2.25 -1.125 2.25 0 0 Z " fill="#020C23" transform="translate(764,948)"/>
<path d="M0 0 C3.76557056 6.81606029 3.16453597 15.04641861 3.203125 22.65234375 C3.20882507 23.55134903 3.21452515 24.45035431 3.22039795 25.37660217 C3.22978833 27.27164558 3.236358 29.16670487 3.24023438 31.06176758 C3.24986894 33.89890677 3.28092057 36.73529794 3.3125 39.57226562 C3.37877161 51.35589789 2.36417456 62.45459096 0 74 C-0.33 74 -0.66 74 -1 74 C-1.05460454 71.81278471 -1.0930633 69.62516369 -1.125 67.4375 C-1.14820313 66.21933594 -1.17140625 65.00117187 -1.1953125 63.74609375 C-1 60 -1 60 -0.00390625 56.59375 C1.20052158 52.28217955 1.2576263 48.50982252 1.1875 44.0625 C1.18105469 43.19020752 1.17460938 42.31791504 1.16796875 41.41918945 C1.01731433 27.60959336 0.48647253 13.80107037 0 0 Z " fill="#2D7FC1" transform="translate(1074,616)"/>
<path d="M0 0 C-4.6154263 3.38464596 -9.48086654 4.08907506 -15 5 C-15.33 5.99 -15.66 6.98 -16 8 C-18.6171875 9.16796875 -18.6171875 9.16796875 -21.875 10.1875 C-22.94492187 10.53167969 -24.01484375 10.87585938 -25.1171875 11.23046875 C-28 12 -28 12 -31 12 C-31.24492187 12.63808594 -31.48984375 13.27617188 -31.7421875 13.93359375 C-33 16 -33 16 -34.8828125 16.72265625 C-35.62273437 16.83480469 -36.36265625 16.94695313 -37.125 17.0625 C-40.39274266 17.6413272 -43.24832959 18.41124141 -46.3125 19.6875 C-49.95657797 20.9845447 -50.59825551 21.11889609 -54 20 C-52.82824219 19.55269531 -51.65648437 19.10539063 -50.44921875 18.64453125 C-42.94197517 15.76273648 -35.49222255 12.85415027 -28.1953125 9.46875 C-23.50263953 7.31172673 -18.78959309 5.20541649 -14.0625 3.125 C-13.13719482 2.70686035 -12.21188965 2.2887207 -11.25854492 1.85791016 C-10.38045166 1.47425293 -9.5023584 1.0905957 -8.59765625 0.6953125 C-7.80883057 0.34484863 -7.02000488 -0.00561523 -6.20727539 -0.36669922 C-3.71141754 -1.08279868 -2.41773866 -0.85542799 0 0 Z " fill="#307DBA" transform="translate(342,734)"/>
<path d="M0 0 C0.66 0.33 1.32 0.66 2 1 C1.030625 1.268125 0.06125 1.53625 -0.9375 1.8125 C-1.948125 2.204375 -2.95875 2.59625 -4 3 C-4.33 3.99 -4.66 4.98 -5 6 C-6.32 6 -7.64 6 -9 6 C-9.35964844 6.97259766 -9.35964844 6.97259766 -9.7265625 7.96484375 C-11 10 -11 10 -13.0234375 10.50390625 C-13.79945313 10.52324219 -14.57546875 10.54257812 -15.375 10.5625 C-19.27169601 10.8235227 -21.00206707 11.41557506 -24 14 C-28.14964115 15.71398221 -31.5229457 16.21319306 -36 16 C-33.61593246 14.41062164 -31.58577794 13.29697491 -28.9921875 12.16796875 C-28.19651367 11.82040527 -27.40083984 11.4728418 -26.58105469 11.11474609 C-25.30343262 10.56294678 -25.30343262 10.56294678 -24 10 C-23.12504883 9.62053223 -22.25009766 9.24106445 -21.34863281 8.85009766 C-18.60960737 7.66574739 -15.86773394 6.48823411 -13.125 5.3125 C-12.18914062 4.90966797 -11.25328125 4.50683594 -10.2890625 4.09179688 C-9.391875 3.70701172 -8.4946875 3.32222656 -7.5703125 2.92578125 C-6.76352051 2.57942627 -5.95672852 2.23307129 -5.12548828 1.8762207 C-3.44344461 1.18280757 -1.72600215 0.57533405 0 0 Z " fill="#2D84CA" transform="translate(443,689)"/>
<path d="M0 0 C8.57142857 0.85714286 8.57142857 0.85714286 12 3 C12 3.66 12 4.32 12 5 C12.88751953 5.05607422 12.88751953 5.05607422 13.79296875 5.11328125 C18.75872091 5.52641887 21.74631282 6.31346073 26 9 C29.69523952 9.71923208 29.69523952 9.71923208 33 10 C33.66 11.65 34.32 13.3 35 15 C28.72555221 12.97607539 22.57015561 10.73023007 16.4375 8.3125 C15.61958984 7.99216797 14.80167969 7.67183594 13.95898438 7.34179688 C11.97186378 6.56321746 9.98581573 5.78190155 8 5 C8 4.34 8 3.68 8 3 C5.36 2.34 2.72 1.68 0 1 C0 0.67 0 0.34 0 0 Z " fill="#2A84CC" transform="translate(338,562)"/>
<path d="M0 0 C2.875 -0.125 2.875 -0.125 6 0 C8 2 8 2 8.125 5.125 C8.08375 6.07375 8.0425 7.0225 8 8 C4.625 8.625 4.625 8.625 1 9 C0.34 8.34 -0.32 7.68 -1 7 C-0.625 3.375 -0.625 3.375 0 0 Z " fill="#112D5E" transform="translate(656,913)"/>
<path d="M0 0 C2.875 -0.125 2.875 -0.125 6 0 C8 2 8 2 8.1875 5.0625 C8 8 8 8 7 9 C4.0625 9.25 4.0625 9.25 1 9 C-1 6 -1 6 -0.625 2.8125 C-0.41875 1.884375 -0.2125 0.95625 0 0 Z " fill="#12397B" transform="translate(656,901)"/>
<path d="M0 0 C2.33944736 0.28730055 4.6739143 0.61936779 7 1 C7.04241723 3.33294775 7.04092937 5.66702567 7 8 C6 9 6 9 3.0625 9.25 C2.051875 9.1675 1.04125 9.085 0 9 C-2 6 -2 6 -1.6875 3.375 C-1 1 -1 1 0 0 Z " fill="#122D5F" transform="translate(800,901)"/>
<path d="M0 0 C9.08394273 2.55123498 17.56178558 5.78089279 26 10 C27.03125 10.33 28.0625 10.66 29.125 11 C31.93285886 11.97664656 33.74707291 13.09367708 36 15 C32.39701684 14.36379757 29.11324182 13.40407582 25.6875 12.125 C24.72714844 11.76792969 23.76679688 11.41085937 22.77734375 11.04296875 C21.40255859 10.52669922 21.40255859 10.52669922 20 10 C18.88818359 9.59201172 18.88818359 9.59201172 17.75390625 9.17578125 C14.55937029 7.99884695 11.42296386 6.7596581 8.3125 5.375 C5.48100863 4.19966396 3.01516125 3.45684261 0 3 C0 2.01 0 1.02 0 0 Z " fill="#011229" transform="translate(448,609)"/>
<path d="M0 0 C3 0.125 3 0.125 4 1.125 C4.04092937 3.45797433 4.04241723 5.79205225 4 8.125 C1.6739143 8.50563221 -0.66055264 8.83769945 -3 9.125 C-4 8.125 -4 8.125 -4.125 4.625 C-3.9657228 0.16523845 -3.9657228 0.16523845 0 0 Z " fill="#113B7D" transform="translate(564,900.875)"/>
<path d="M0 0 C3.0625 0.1875 3.0625 0.1875 5.0625 2.1875 C5.1875 4.8125 5.1875 4.8125 5.0625 7.1875 C2.10585481 8.6658226 -0.67979737 8.24782783 -3.9375 8.1875 C-3.97991723 5.85455225 -3.97842937 3.52047433 -3.9375 1.1875 C-2.9375 0.1875 -2.9375 0.1875 0 0 Z " fill="#102F64" transform="translate(646.9375,924.8125)"/>
<path d="M0 0 C1 1 1 1 1.0625 4.0625 C1.041875 5.031875 1.02125 6.00125 1 7 C-4.43440487 8.32841008 -4.43440487 8.32841008 -6.9375 6.875 C-8 5 -8 5 -7.8125 2.375 C-6.32175079 -1.98257461 -3.87638311 -0.99394439 0 0 Z " fill="#113B7D" transform="translate(555,902)"/>
<path d="M0 0 C1 1 1 1 1.125 4 C1 7 1 7 0 8 C-3 8.125 -3 8.125 -6 8 C-7 7 -7 7 -7.0625 3.4375 C-7.041875 2.303125 -7.02125 1.16875 -7 0 C-4.31633121 -1.3418344 -2.84719317 -0.73004953 0 0 Z " fill="#113065" transform="translate(627,926)"/>
<path d="M0 0 C2.5625 0.1875 2.5625 0.1875 4.5625 2.1875 C4.6875 5.3125 4.6875 5.3125 4.5625 8.1875 C2.2364143 8.56813221 -0.09805264 8.90019945 -2.4375 9.1875 C-3.4375 8.1875 -3.4375 8.1875 -3.5625 4.6875 C-3.40444215 0.26188017 -3.40444215 0.26188017 0 0 Z " fill="#133167" transform="translate(587.4375,900.8125)"/>
<path d="M0 0 C2.375 -0.125 2.375 -0.125 5 0 C7 2 7 2 7.1875 5.0625 C7 8 7 8 6 9 C4.00041636 9.04080783 1.99954746 9.04254356 0 9 C-1.125 2.25 -1.125 2.25 0 0 Z " fill="#164494" transform="translate(776,901)"/>
<path d="M0 0 C2.875 -0.125 2.875 -0.125 6 0 C6.66 0.66 7.32 1.32 8 2 C7.44444444 6.55555556 7.44444444 6.55555556 6 8 C3 8.125 3 8.125 0 8 C-0.33 7.67 -0.66 7.34 -1 7 C-0.71269945 4.66055264 -0.38063221 2.3260857 0 0 Z " fill="#143572" transform="translate(680,937)"/>
<path d="M0 0 C2.5625 0.1875 2.5625 0.1875 4.5625 2.1875 C4.6875 5.3125 4.6875 5.3125 4.5625 8.1875 C1.6875 8.8125 1.6875 8.8125 -1.4375 9.1875 C-3.4375 7.1875 -3.4375 7.1875 -3.625 4.125 C-3.37828947 0.25986842 -3.37828947 0.25986842 0 0 Z " fill="#133772" transform="translate(563.4375,924.8125)"/>
<path d="M0 0 C0 0.66 0 1.32 0 2 C-4.64203897 4.53309233 -8.65155992 6.46515599 -14 7 C-14 7.66 -14 8.32 -14 9 C-22.03571429 11.27678571 -22.03571429 11.27678571 -26 10 C-2.86666667 0 -2.86666667 0 0 0 Z " fill="#031730" transform="translate(438,731)"/>
<path d="M0 0 C2.5625 0.1875 2.5625 0.1875 4.5625 2.1875 C4.2355244 4.80330479 3.74210932 6.82828137 2.5625 9.1875 C0.89638095 9.230221 -0.77132885 9.22813832 -2.4375 9.1875 C-3.4375 8.1875 -3.4375 8.1875 -3.5625 4.6875 C-3.40444215 0.26188017 -3.40444215 0.26188017 0 0 Z " fill="#133C82" transform="translate(575.4375,900.8125)"/>
<path d="M0 0 C3.3 0.99 6.6 1.98 10 3 C10 15.54 10 28.08 10 41 C7.03 41.495 7.03 41.495 4 42 C4.33 41.34 4.66 40.68 5 40 C6.32 40 7.64 40 9 40 C9 28.12 9 16.24 9 4 C6.03 3.67 3.06 3.34 0 3 C0 2.01 0 1.02 0 0 Z " fill="#3088CE" transform="translate(580,625)"/>
<path d="M0 0 C2.5625 0.1875 2.5625 0.1875 4.5625 2.1875 C4.6875 4.8125 4.6875 4.8125 4.5625 7.1875 C-2.1875 8.3125 -2.1875 8.3125 -4.4375 7.1875 C-3.40604305 0.26200331 -3.40604305 0.26200331 0 0 Z " fill="#13366A" transform="translate(575.4375,948.8125)"/>
<path d="M0 0 C2.375 -0.125 2.375 -0.125 5 0 C7 2 7 2 7.125 5.125 C7.08375 6.07375 7.0425 7.0225 7 8 C4.125 8.625 4.125 8.625 1 9 C0.34 8.34 -0.32 7.68 -1 7 C-0.625 3.375 -0.625 3.375 0 0 Z " fill="#123D83" transform="translate(752,925)"/>
<path d="M0 0 C2.31 0 4.62 0 7 0 C7.625 2.3125 7.625 2.3125 8 5 C7.01 6.485 7.01 6.485 6 8 C3.5 8.3125 3.5 8.3125 1 8 C0.34 7.34 -0.32 6.68 -1 6 C-0.625 2.875 -0.625 2.875 0 0 Z " fill="#113B7E" transform="translate(692,914)"/>
<path d="M0 0 C2.375 -0.1875 2.375 -0.1875 5 0 C7.14809171 3.22213757 7.29386153 4.27775401 7 8 C6 9 6 9 3.5625 9.1875 C1 9 1 9 -1 7 C-0.625 3.375 -0.625 3.375 0 0 Z " fill="#153871" transform="translate(728,901)"/>
<path d="M0 0 C1.08128971 3.24386914 0.98641762 3.8006281 -0.0390625 6.87890625 C-0.28769043 7.63123535 -0.53631836 8.38356445 -0.79248047 9.15869141 C-1.06721191 9.95194824 -1.34194336 10.74520508 -1.625 11.5625 C-1.89844238 12.36864746 -2.17188477 13.17479492 -2.45361328 14.00537109 C-4.50852216 19.92260437 -6.902 25.54423008 -10 31 C-10.33 31 -10.66 31 -11 31 C-11.55030991 25.60696284 -10.72889661 23.38729552 -7.37109375 19.23046875 C-4.90449583 15.21785503 -4.03735348 10.64175935 -2.89453125 6.109375 C-2 3 -2 3 0 0 Z " fill="#2F87CD" transform="translate(1068,709)"/>
<path d="M0 0 C3 0.125 3 0.125 4 1.125 C4.04080783 3.12458364 4.04254356 5.12545254 4 7.125 C1.6739143 7.50563221 -0.66055264 7.83769945 -3 8.125 C-4 7.125 -4 7.125 -4.125 4.125 C-3.96 0.165 -3.96 0.165 0 0 Z " fill="#133E81" transform="translate(719,936.875)"/>
<path d="M0 0 C3 0.125 3 0.125 4 1.125 C4.125 4.125 4.125 4.125 4 7.125 C3.67 7.455 3.34 7.785 3 8.125 C0.66055264 7.83769945 -1.6739143 7.50563221 -4 7.125 C-4.04254356 5.12545254 -4.04080783 3.12458364 -4 1.125 C-3 0.125 -3 0.125 0 0 Z " fill="#143773" transform="translate(790,900.875)"/>
<path d="M0 0 C2.33944736 0.28730055 4.6739143 0.61936779 7 1 C7 2.98 7 4.96 7 7 C4.6739143 7.38063221 2.33944736 7.71269945 0 8 C-1 7 -1 7 -1.125 4 C-1 1 -1 1 0 0 Z " fill="#113E84" transform="translate(537,949)"/>
<path d="M0 0 C2.5625 0.1875 2.5625 0.1875 4.5625 2.1875 C4.6875 4.8125 4.6875 4.8125 4.5625 7.1875 C1.85370665 8.54189668 -0.44683268 8.25251451 -3.4375 8.1875 C-3.47991723 5.85455225 -3.47842937 3.52047433 -3.4375 1.1875 C-2.4375 0.1875 -2.4375 0.1875 0 0 Z " fill="#133E86" transform="translate(635.4375,948.8125)"/>
<path d="M0 0 C2.5625 0.1875 2.5625 0.1875 4.5625 2.1875 C4.75 4.75 4.75 4.75 4.5625 7.1875 C3.5625 8.1875 3.5625 8.1875 0.5625 8.3125 C-2.4375 8.1875 -2.4375 8.1875 -3.4375 7.1875 C-3.5625 4.1875 -3.5625 4.1875 -3.4375 1.1875 C-2.4375 0.1875 -2.4375 0.1875 0 0 Z " fill="#163A74" transform="translate(766.4375,948.8125)"/>
<path d="M0 0 C1.99954746 -0.04254356 4.00041636 -0.04080783 6 0 C7 1 7 1 7.0625 4.0625 C7.041875 5.031875 7.02125 6.00125 7 7 C4.6739143 7.38063221 2.33944736 7.71269945 0 8 C-0.33 7.67 -0.66 7.34 -1 7 C-0.71269945 4.66055264 -0.38063221 2.3260857 0 0 Z " fill="#183E7E" transform="translate(728,937)"/>
<path d="M0 0 C3 0.125 3 0.125 4 1.125 C4.04080783 3.12458364 4.04254356 5.12545254 4 7.125 C-1.75 8.25 -1.75 8.25 -4 7.125 C-4.04254356 5.12545254 -4.04080783 3.12458364 -4 1.125 C-3 0.125 -3 0.125 0 0 Z " fill="#133C85" transform="translate(588,936.875)"/>
<path d="M0 0 C0 1.98 0 3.96 0 6 C-2.70879335 7.35439668 -5.00933268 7.06501451 -8 7 C-8 4.69 -8 2.38 -8 0 C-5.13822943 -1.43088528 -3.06624227 -0.59991697 0 0 Z " fill="#153974" transform="translate(640,938)"/>
<path d="M0 0 C2.625 0.375 2.625 0.375 5 1 C5.625 3.3125 5.625 3.3125 6 6 C5.01 7.485 5.01 7.485 4 9 C-0.875 8.125 -0.875 8.125 -2 7 C-2.1875 4.5625 -2.1875 4.5625 -2 2 C-1.34 1.34 -0.68 0.68 0 0 Z " fill="#133E84" transform="translate(550,925)"/>
<path d="M0 0 C2.5625 0.1875 2.5625 0.1875 4.5625 2.1875 C4.6875 4.8125 4.6875 4.8125 4.5625 7.1875 C1.85370665 8.54189668 -0.44683268 8.25251451 -3.4375 8.1875 C-3.47991723 5.85455225 -3.47842937 3.52047433 -3.4375 1.1875 C-2.4375 0.1875 -2.4375 0.1875 0 0 Z " fill="#10459D" transform="translate(611.4375,900.8125)"/>
<path d="M0 0 C0.66 0.33 1.32 0.66 2 1 C1.67 1.66 1.34 2.32 1 3 C0.01 3 -0.98 3 -2 3 C-2.35771484 3.92039062 -2.35771484 3.92039062 -2.72265625 4.859375 C-4.31040628 7.52019156 -5.60317853 8.07717732 -8.4375 9.25 C-9.21996094 9.58515625 -10.00242187 9.9203125 -10.80859375 10.265625 C-13 11 -13 11 -16 11 C-16 11.66 -16 12.32 -16 13 C-19.44450737 15.29633824 -21.93812283 15.54016485 -26 16 C-24.34689456 12.69378912 -20.72389586 11.77954342 -17.5 10.25 C-11.33318743 7.25720138 -5.5427332 4.06467102 0 0 Z " fill="#031E3A" transform="translate(1020,784)"/>
<path d="M0 0 C2.5625 -0.25 2.5625 -0.25 5 0 C6 1 6 1 6.0625 4.5625 C6.041875 5.696875 6.02125 6.83125 6 8 C3.69 8 1.38 8 -1 8 C-1.625 5.6875 -1.625 5.6875 -2 3 C-1.34 2.01 -0.68 1.02 0 0 Z " fill="#143E82" transform="translate(705,925)"/>
<path d="M0 0 C3.5 0.125 3.5 0.125 4.5 1.125 C4.54063832 2.79117115 4.542721 4.45888095 4.5 6.125 C-1.65234375 7.00390625 -1.65234375 7.00390625 -3.5 7.125 C-4.5 6.125 -4.5 6.125 -4.625 3.625 C-4.42968621 -0.28127577 -4.05331122 0.14476112 0 0 Z " fill="#0D3D8B" transform="translate(683.5,913.875)"/>
<path d="M0 0 C1 1 1 1 1.125 3.5 C1 6 1 6 0 7 C-3 7.125 -3 7.125 -6 7 C-7 6 -7 6 -7.0625 2.9375 C-7.041875 1.968125 -7.02125 0.99875 -7 0 C-4.31633121 -1.3418344 -2.84719317 -0.73004953 0 0 Z " fill="#173870" transform="translate(770,902)"/>
<path d="M0 0 C1.99954746 -0.04254356 4.00041636 -0.04080783 6 0 C7 1 7 1 7.125 4 C7 7 7 7 6 8 C4.00041636 8.04080783 1.99954746 8.04254356 0 8 C-0.79953138 4.71303767 -1.09658936 3.28976808 0 0 Z " fill="#133E87" transform="translate(680,949)"/>
<path d="M0 0 C2.5625 0.1875 2.5625 0.1875 4.5625 2.1875 C4.00694444 6.74305556 4.00694444 6.74305556 2.5625 8.1875 C0.0625 8.3125 0.0625 8.3125 -2.4375 8.1875 C-3.4375 7.1875 -3.4375 7.1875 -3.5625 4.1875 C-3.39891479 0.26145498 -3.39891479 0.26145498 0 0 Z " fill="#123F8A" transform="translate(563.4375,948.8125)"/>
<path d="M0 0 C2.375 -0.125 2.375 -0.125 5 0 C7 2 7 2 7.125 4.625 C7.08375 5.40875 7.0425 6.1925 7 7 C4.6739143 7.38063221 2.33944736 7.71269945 0 8 C-0.33 7.67 -0.66 7.34 -1 7 C-0.71269945 4.66055264 -0.38063221 2.3260857 0 0 Z " fill="#153A73" transform="translate(752,937)"/>
<path d="M0 0 C1.98 0 3.96 0 6 0 C6.33 2.31 6.66 4.62 7 7 C4.69 7.33 2.38 7.66 0 8 C-0.79953138 4.71303767 -1.09658936 3.28976808 0 0 Z " fill="#173973" transform="translate(728,913)"/>
<path d="M0 0 C0.66 0.33 1.32 0.66 2 1 C-2.75 4 -2.75 4 -5 4 C-5 4.66 -5 5.32 -5 6 C-10.34250933 8.79845727 -14.90420047 11 -21 11 C-21.66 10.67 -22.32 10.34 -23 10 C-22.26136719 9.69707031 -21.52273438 9.39414062 -20.76171875 9.08203125 C-14.48141008 6.48851115 -8.29628931 3.78110236 -2.1796875 0.8203125 C-1.46039063 0.54960938 -0.74109375 0.27890625 0 0 Z " fill="#2D7FC2" transform="translate(395,709)"/>
<path d="M0 0 C0 0.66 0 1.32 0 2 C-0.99 2 -1.98 2 -3 2 C-3.33 2.99 -3.66 3.98 -4 5 C-9.04151704 8.36101136 -14.11790082 8.66288364 -20 9 C-17.26285181 5.53433328 -13.42940865 4.34203926 -9.4375 2.8125 C-8.75236328 2.53986328 -8.06722656 2.26722656 -7.36132812 1.98632812 C-2.28847509 0 -2.28847509 0 0 0 Z " fill="#2C7AB7" transform="translate(532,652)"/>
<path d="M0 0 C1 1 1 1 1.125 3.5 C1 6 1 6 0 7 C-2.4375 7.1875 -2.4375 7.1875 -5 7 C-7 5 -7 5 -7.125 2.375 C-7.08375 1.59125 -7.0425 0.8075 -7 0 C-4.31633121 -1.3418344 -2.84719317 -0.73004953 0 0 Z " fill="#163F89" transform="translate(805,950)"/>
<path d="M0 0 C2.375 -0.125 2.375 -0.125 5 0 C5.66 0.66 6.32 1.32 7 2 C6.625 5.125 6.625 5.125 6 8 C4.02 8 2.04 8 0 8 C-1.125 2.25 -1.125 2.25 0 0 Z " fill="#144087" transform="translate(728,949)"/>
<path d="M0 0 C1.125 4.75 1.125 4.75 0 7 C-1.99954746 7.04254356 -4.00041636 7.04080783 -6 7 C-7 6 -7 6 -7.0625 2.9375 C-7.041875 1.968125 -7.02125 0.99875 -7 0 C-3.86650268 -1.04449911 -3.01031744 -0.93423645 0 0 Z " fill="#143E89" transform="translate(555,950)"/>
<path d="M0 0 C4.70588235 0.70588235 4.70588235 0.70588235 6 2 C6.04080783 3.99958364 6.04254356 6.00045254 6 8 C3.125 8.125 3.125 8.125 0 8 C-0.66 7.34 -1.32 6.68 -2 6 C-1.44444444 1.44444444 -1.44444444 1.44444444 0 0 Z " fill="#153C77" transform="translate(538,913)"/>
<path d="M0 0 C1.98 0 3.96 0 6 0 C6.38063221 2.3260857 6.71269945 4.66055264 7 7 C6 8 6 8 2.9375 8.0625 C1.968125 8.041875 0.99875 8.02125 0 8 C-0.79953138 4.71303767 -1.09658936 3.28976808 0 0 Z " fill="#173A71" transform="translate(680,901)"/>
<path d="M0 0 C1.1446875 0.3403125 1.1446875 0.3403125 2.3125 0.6875 C2.35504356 2.68704746 2.35330783 4.68791636 2.3125 6.6875 C1.3125 7.6875 1.3125 7.6875 -1.75 7.75 C-2.719375 7.729375 -3.68875 7.70875 -4.6875 7.6875 C-5.375 5.375 -5.375 5.375 -5.6875 2.6875 C-4.0011022 -0.12316299 -3.27764429 -0.38112143 0 0 Z " fill="#183D7C" transform="translate(684.6875,925.3125)"/>
<path d="M0 0 C0 0.99 0 1.98 0 3 C-0.969375 3.268125 -1.93875 3.53625 -2.9375 3.8125 C-3.948125 4.204375 -4.95875 4.59625 -6 5 C-6.33 5.99 -6.66 6.98 -7 8 C-11.61073111 9.29676812 -15.33840089 8.71109139 -20 8 C-16.24546929 6.0532063 -12.37359823 4.53603833 -8.4375 3 C-6.01120093 2.04521812 -6.01120093 2.04521812 -3.8125 0.875 C-2 0 -2 0 0 0 Z " fill="#2F84C9" transform="translate(980,766)"/>
<path d="M0 0 C0.625 1.8125 0.625 1.8125 1 4 C0.01 5.485 0.01 5.485 -1 7 C-3.5625 7.25 -3.5625 7.25 -6 7 C-7 6 -7 6 -7.0625 2.9375 C-7.041875 1.968125 -7.02125 0.99875 -7 0 C-4.3333581 -1.33332095 -2.83319697 -0.67102033 0 0 Z " fill="#153A73" transform="translate(794,950)"/>
<path d="M0 0 C2.64590014 -0.02684679 5.29153096 -0.04676357 7.9375 -0.0625 C8.69224609 -0.07087891 9.44699219 -0.07925781 10.22460938 -0.08789062 C12.14994313 -0.09652441 14.07535581 -0.05224333 16 0 C16.33 0.33 16.66 0.66 17 1 C19.32817964 1.36760731 21.6618385 1.70241581 24 2 C24 2.66 24 3.32 24 4 C7.1070615 3.03644647 7.1070615 3.03644647 0 2 C0 1.34 0 0.68 0 0 Z " fill="#031328" transform="translate(936,481)"/>
<path d="M0 0 C3.25696479 0.41755959 4.63443291 0.63443291 7 3 C6.625 5.125 6.625 5.125 6 7 C4.0085944 7.38133299 2.00720923 7.71325582 0 8 C-1 7 -1 7 -1.125 4 C-1 1 -1 1 0 0 Z " fill="#1B3D7B" transform="translate(776,949)"/>
<path d="M0 0 C0.66 0.99 1.32 1.98 2 3 C1.34 3.61875 0.68 4.2375 0 4.875 C-2.2284549 6.75637427 -2.2284549 6.75637427 -2 9 C-4.64667791 12.03877834 -7.41661078 14.1623645 -11 16 C-11.99 16 -12.98 16 -14 16 C-14 15.34 -14 14.68 -14 14 C-12.4609375 12.51953125 -12.4609375 12.51953125 -10.375 10.8125 C-6.45744091 7.49442504 -3.24358767 3.9733949 0 0 Z " fill="#02142A" transform="translate(1042,763)"/>
<path d="M0 0 C1.98 0 3.96 0 6 0 C6.04241723 2.33294775 6.04092937 4.66702567 6 7 C5 8 5 8 2.4375 8.0625 C1.633125 8.041875 0.82875 8.02125 0 8 C-0.79953138 4.71303767 -1.09658936 3.28976808 0 0 Z " fill="#163D78" transform="translate(728,925)"/>
<path d="M0 0 C1.99954746 -0.04254356 4.00041636 -0.04080783 6 0 C7 1 7 1 7.0625 3.5625 C7.041875 4.366875 7.02125 5.17125 7 6 C4.69 6.33 2.38 6.66 0 7 C-1.125 2.25 -1.125 2.25 0 0 Z " fill="#154289" transform="translate(752,914)"/>
<path d="M0 0 C1.99954746 -0.04254356 4.00041636 -0.04080783 6 0 C7 1 7 1 7.125 3.5 C7 6 7 6 6 7 C3.5625 7.1875 3.5625 7.1875 1 7 C0.34 6.34 -0.32 5.68 -1 5 C-0.625 2.375 -0.625 2.375 0 0 Z " fill="#183D7E" transform="translate(573,926)"/>
<path d="M0 0 C1 1 1 1 1.0625 3.5625 C1.041875 4.366875 1.02125 5.17125 1 6 C-4.75 7.125 -4.75 7.125 -7 6 C-7 4.35 -7 2.7 -7 1 C-4.51588385 -0.24205807 -2.74800896 -0.14092354 0 0 Z " fill="#163D7B" transform="translate(615,914)"/>
<path d="M0 0 C-2 3 -2 3 -4.171875 3.625 C-5.44804688 3.810625 -5.44804688 3.810625 -6.75 4 C-10.03186163 4.55481328 -12.13083382 5.06803359 -15.125 6.625 C-18.98710405 8.47209324 -21.75232323 8.21970742 -26 8 C-23.64448894 5.64448894 -21.80532038 5.42504444 -18.6328125 4.7109375 C-13.97143409 3.45222701 -9.48646802 1.63993164 -4.9765625 -0.07421875 C-2 -1 -2 -1 0 0 Z " fill="#021935" transform="translate(994,801)"/>
<path d="M0 0 C6.15234375 -0.09765625 6.15234375 -0.09765625 8 0 C9 1 9 1 9.1328125 3.03125 C9.13023437 3.8459375 9.12765625 4.660625 9.125 5.5 C9.12757813 6.3146875 9.13015625 7.129375 9.1328125 7.96875 C9 10 9 10 8 11 C1.47457627 11.23728814 1.47457627 11.23728814 -1 10 C-1 8.02 -1 6.04 -1 4 C-0.443125 4.9590625 -0.443125 4.9590625 0.125 5.9375 C2.58052793 8.63858072 4.44578805 8.68407005 8 9 C7.34 6.69 6.68 4.38 6 2 C4.02 2.33 2.04 2.66 0 3 C0 2.01 0 1.02 0 0 Z " fill="#010D26" transform="translate(536,912)"/>
<path d="M0 0 C0.66 0.33 1.32 0.66 2 1 C2 2.32 2 3.64 2 5 C2.66 5 3.32 5 4 5 C4 7.31 4 9.62 4 12 C1.04335481 13.4783226 -1.74229737 13.06032783 -5 13 C-5 12.67 -5 12.34 -5 12 C-1.535 11.505 -1.535 11.505 2 11 C1.34 9.02 0.68 7.04 0 5 C-1.65 4.67 -3.3 4.34 -5 4 C-5.33 6.31 -5.66 8.62 -6 11 C-6.33 11 -6.66 11 -7 11 C-7.125 5.25 -7.125 5.25 -6 3 C-4.02 3 -2.04 3 0 3 C0 2.01 0 1.02 0 0 Z " fill="#010B23" transform="translate(757,933)"/>
<path d="M0 0 C-1.01669716 2.72451991 -1.6515699 3.80878836 -4.2421875 5.23046875 C-5.54542969 5.70419922 -5.54542969 5.70419922 -6.875 6.1875 C-7.73867188 6.51105469 -8.60234375 6.83460938 -9.4921875 7.16796875 C-10.31976563 7.44253906 -11.14734375 7.71710937 -12 8 C-13.08667969 8.36544922 -13.08667969 8.36544922 -14.1953125 8.73828125 C-14.79085938 8.82464844 -15.38640625 8.91101563 -16 9 C-16.66 8.34 -17.32 7.68 -18 7 C-16.27149655 6.20688633 -14.54216646 5.4155741 -12.8125 4.625 C-11.36810547 3.96371094 -11.36810547 3.96371094 -9.89453125 3.2890625 C-2.50909091 0 -2.50909091 0 0 0 Z " fill="#041F3C" transform="translate(388,752)"/>
<path d="M0 0 C-0.33 0.99 -0.66 1.98 -1 3 C-2.78515625 3.625 -2.78515625 3.625 -5.0625 4 C-8.33804789 4.61025335 -11.23558141 5.40930637 -14.3125 6.6875 C-17.95657797 7.9845447 -18.59825551 8.11889609 -22 7 C-19.08770867 5.82219564 -16.16952322 4.65974925 -13.25 3.5 C-12.425 3.16613281 -11.6 2.83226562 -10.75 2.48828125 C-9.95078125 2.17246094 -9.1515625 1.85664062 -8.328125 1.53125 C-7.5949707 1.23798828 -6.86181641 0.94472656 -6.10644531 0.64257812 C-4 0 -4 0 0 0 Z " fill="#3092DD" transform="translate(310,747)"/>
<path d="M0 0 C-0.33 0.99 -0.66 1.98 -1 3 C-2.71484375 3.80859375 -2.71484375 3.80859375 -4.9375 4.4375 C-9.36564908 5.76028575 -13.51721047 7.45209354 -17.73828125 9.328125 C-20.2741509 10.08144034 -21.54104622 9.87779586 -24 9 C-21.7536764 7.99095625 -19.50356063 6.9926398 -17.25 6 C-16.61578125 5.71382812 -15.9815625 5.42765625 -15.328125 5.1328125 C-11.91582896 3.63993298 -9.79218083 3 -6 3 C-6 2.34 -6 1.68 -6 1 C-3 0 -3 0 0 0 Z " fill="#062749" transform="translate(590,666)"/>
<path d="M0 0 C3.96 1.32 7.92 2.64 12 4 C11.01 4.33 10.02 4.66 9 5 C9 5.66 9 6.32 9 7 C6.36 7 3.72 7 1 7 C0.67 4.69 0.34 2.38 0 0 Z " fill="#268DDD" transform="translate(441,567)"/>
<path d="M0 0 C2.70873995 2.19278948 3.83070396 4.63048094 5.1015625 7.828125 C6.60952978 11.47347198 8.38522524 14.99948641 10.109375 18.546875 C11 21 11 21 10 24 C9.67 22.68 9.34 21.36 9 20 C8.34 20 7.68 20 7 20 C7 18.68 7 17.36 7 16 C6.34 16 5.68 16 5 16 C4.67 13.03 4.34 10.06 4 7 C3.01 7 2.02 7 1 7 C0.67 4.69 0.34 2.38 0 0 Z " fill="#2B82C9" transform="translate(1054,552)"/>
<path d="M0 0 C-2.28343143 2.28343143 -3.26191456 2.45372942 -6.359375 3.0703125 C-7.22820313 3.24433594 -8.09703125 3.41835938 -8.9921875 3.59765625 C-9.90226563 3.77167969 -10.81234375 3.94570313 -11.75 4.125 C-13.09191406 4.39763672 -13.09191406 4.39763672 -14.4609375 4.67578125 C-19.03837423 5.573715 -23.31029064 6.23293258 -28 6 C-28 5.34 -28 4.68 -28 4 C-26.90300781 3.87882813 -25.80601562 3.75765625 -24.67578125 3.6328125 C-23.22131177 3.46390637 -21.76688696 3.29461519 -20.3125 3.125 C-19.59126953 3.04636719 -18.87003906 2.96773437 -18.12695312 2.88671875 C-11.73752561 2.12815658 -6.52382746 -0.25583637 0 0 Z " fill="#2D85CC" transform="translate(978,805)"/>
<path d="M0 0 C0 0.66 0 1.32 0 2 C-9.49613298 5.02149686 -18.16256984 5.33706931 -28 5 C-28 4.67 -28 4.34 -28 4 C-27.27296875 3.96261719 -26.5459375 3.92523437 -25.796875 3.88671875 C-19.1397451 3.45144487 -13.01731244 2.42556223 -6.59375 0.62109375 C-4 0 -4 0 0 0 Z " fill="#327EBD" transform="translate(960,774)"/>
<path d="M0 0 C0.66 0 1.32 0 2 0 C2 2.31 2 4.62 2 7 C3.98 6.67 5.96 6.34 8 6 C8.33 4.35 8.66 2.7 9 1 C9.33 1 9.66 1 10 1 C10 2.98 10 4.96 10 7 C9.01 7.33 8.02 7.66 7 8 C7 8.99 7 9.98 7 11 C5.35 11 3.7 11 2 11 C-0.32590854 7.36576791 -0.16265833 4.22911669 0 0 Z " fill="#020E2D" transform="translate(678,926)"/>
<path d="M0 0 C1 2 1 2 1 6 C3.31 6 5.62 6 8 6 C7.67 4.02 7.34 2.04 7 0 C7.66 0 8.32 0 9 0 C9 2.31 9 4.62 9 7 C8.34 7 7.68 7 7 7 C6.67 8.32 6.34 9.64 6 11 C4.35 11 2.7 11 1 11 C-1.08997373 7.60379269 -1.2632246 4.94836905 -1 1 C-0.67 0.67 -0.34 0.34 0 0 Z " fill="#010C27" transform="translate(727,914)"/>
<path d="M0 0 C0.33 0 0.66 0 1 0 C1.48506832 8.89291917 -0.32374305 17.30940593 -2 26 C-2.33 26 -2.66 26 -3 26 C-3.02685938 23.85423363 -3.04633088 21.70837355 -3.0625 19.5625 C-3.07410156 18.36753906 -3.08570313 17.17257812 -3.09765625 15.94140625 C-3 13 -3 13 -2 12 C-1.60430892 9.98688551 -1.25747809 7.96402792 -0.9375 5.9375 C-0.67259766 4.28041016 -0.67259766 4.28041016 -0.40234375 2.58984375 C-0.26957031 1.73519531 -0.13679688 0.88054688 0 0 Z " fill="#031429" transform="translate(1036,666)"/>
<path d="M0 0 C2.97 0.495 2.97 0.495 6 1 C6.34982212 4.14839906 6.24633224 5.62023779 4.5 8.3125 C0.87174359 10.76157308 -1.67840225 10.28810652 -6 10 C-5.67 9.01 -5.34 8.02 -5 7 C-2.525 7.99 -2.525 7.99 0 9 C1.04214691 4.38492226 1.04214691 4.38492226 0 0 Z " fill="#010B25" transform="translate(554,925)"/>
<path d="M0 0 C4.12820219 0.51602527 7.23335122 2.05083473 10.86328125 3.9453125 C14.1517431 5.56850208 17.54827867 6.76724238 21 8 C14.33698052 10.22100649 6.07395184 4.82876717 0 2 C0 1.34 0 0.68 0 0 Z " fill="#2E85C9" transform="translate(407,553)"/>
<path d="M0 0 C7.99404313 2.48994786 15.99776346 5.33184231 23 10 C20.69 10 18.38 10 16 10 C16 9.34 16 8.68 16 8 C15.28328125 7.88527344 14.5665625 7.77054688 13.828125 7.65234375 C10.85118449 6.96567377 8.47347107 5.93646669 5.75 4.5625 C4.87859375 4.13066406 4.0071875 3.69882812 3.109375 3.25390625 C1 2 1 2 0 0 Z " fill="#001029" transform="translate(281,539)"/>
<path d="M0 0 C0 2.31 0 4.62 0 7 C-2.64 7 -5.28 7 -8 7 C-8 8.65 -8 10.3 -8 12 C-8.33 12 -8.66 12 -9 12 C-9 10.02 -9 8.04 -9 6 C-8.34 6 -7.68 6 -7 6 C-6.67 4.35 -6.34 2.7 -6 1 C-3.92446352 0.4465236 -2.15634036 0 0 0 Z " fill="#05142F" transform="translate(616,908)"/>
<path d="M0 0 C0.33 0.99 0.66 1.98 1 3 C-1.3125 5.5 -1.3125 5.5 -4 8 C-4.99 8 -5.98 8 -7 8 C-7.66 9.32 -8.32 10.64 -9 12 C-10.32 11.67 -11.64 11.34 -13 11 C-12.22914063 10.37351562 -11.45828125 9.74703125 -10.6640625 9.1015625 C-9.15972656 7.87566406 -9.15972656 7.87566406 -7.625 6.625 C-6.62726562 5.81289063 -5.62953125 5.00078125 -4.6015625 4.1640625 C-2.03639494 2.09734084 -2.03639494 2.09734084 0 0 Z " fill="#3381C2" transform="translate(1003,748)"/>
<path d="M0 0 C0.66 0.33 1.32 0.66 2 1 C2 1.33 2 1.66 2 2 C2.66 2 3.32 2 4 2 C4 2.66 4 3.32 4 4 C2.2984375 4.2165625 2.2984375 4.2165625 0.5625 4.4375 C-2.80777201 4.61171478 -2.80777201 4.61171478 -4 6 C-6.67058851 6.14115161 -9.32432238 6.04247107 -12 6 C-9.48617788 4.32411859 -7.17052712 3.05969689 -4.4375 1.8125 C-3.65246094 1.44769531 -2.86742187 1.08289063 -2.05859375 0.70703125 C-1.37925781 0.47371094 -0.69992187 0.24039063 0 0 Z " fill="#2A81C8" transform="translate(369,720)"/>
<path d="M0 0 C0.33 0 0.66 0 1 0 C1.11613204 3.10385211 1.18722029 6.20714662 1.25 9.3125 C1.30027344 10.63411133 1.30027344 10.63411133 1.3515625 11.98242188 C1.45112665 18.52876499 1.45112665 18.52876499 -1.015625 21.10546875 C-1.67046875 21.40066406 -2.3253125 21.69585938 -3 22 C-2.37727768 14.5928819 -1.29512034 7.31805865 0 0 Z " fill="#02152D" transform="translate(1076,672)"/>
<path d="M0 0 C5.14543016 -0.30267236 7.72979782 0.19065646 12 3 C14.69254991 3.70670728 14.69254991 3.70670728 17 4 C17 4.66 17 5.32 17 6 C17.99 6 18.98 6 20 6 C20 6.66 20 7.32 20 8 C13.14381674 6.07443364 6.56747868 3.7527517 0 1 C0 0.67 0 0.34 0 0 Z " fill="#052443" transform="translate(976,488)"/>
<path d="M0 0 C1.32 0 2.64 0 4 0 C4 1.98 4 3.96 4 6 C3.01 6.495 3.01 6.495 2 7 C1.3503125 7.804375 1.3503125 7.804375 0.6875 8.625 C0.130625 9.07875 -0.42625 9.5325 -1 10 C-3.6875 9.6875 -3.6875 9.6875 -6 9 C-6 8.34 -6 7.68 -6 7 C-4.02 6.67 -2.04 6.34 0 6 C0 4.02 0 2.04 0 0 Z " fill="#010C20" transform="translate(544,950)"/>
<path d="M0 0 C0.66 0.33 1.32 0.66 2 1 C2 2.98 2 4.96 2 7 C1.01 7.33 0.02 7.66 -1 8 C-0.67 9.32 -0.34 10.64 0 12 C-1.98 12 -3.96 12 -6 12 C-6 10.35 -6 8.7 -6 7 C-4.02 6.67 -2.04 6.34 0 6 C0 4.02 0 2.04 0 0 Z " fill="#051432" transform="translate(686,902)"/>
<path d="M0 0 C2.97 0.495 2.97 0.495 6 1 C2.83936913 3.60332156 -0.3431652 5.14038576 -4.125 6.6875 C-5.70667969 7.34298828 -5.70667969 7.34298828 -7.3203125 8.01171875 C-10 9 -10 9 -12 9 C-12 8.34 -12 7.68 -12 7 C-11.30132812 6.74605469 -10.60265625 6.49210938 -9.8828125 6.23046875 C-8.97273438 5.88628906 -8.06265625 5.54210937 -7.125 5.1875 C-6.22007812 4.85105469 -5.31515625 4.51460937 -4.3828125 4.16796875 C-1.70574151 3.10350976 -1.70574151 3.10350976 0 0 Z " fill="#2989D5" transform="translate(410,738)"/>
<path d="M0 0 C4.52048157 3.13922331 6.51545911 6.21495828 9 11 C8.34 11 7.68 11 7 11 C7 10.34 7 9.68 7 9 C6.030625 8.690625 5.06125 8.38125 4.0625 8.0625 C1 7 1 7 0 6 C-0.04080783 4.00041636 -0.04254356 1.99954746 0 0 Z " fill="#2D87CF" transform="translate(1035,525)"/>
<path d="M0 0 C1.2065625 0.0309375 1.2065625 0.0309375 2.4375 0.0625 C2.4375 2.0425 2.4375 4.0225 2.4375 6.0625 C0.7875 6.0625 -0.8625 6.0625 -2.5625 6.0625 C-2.94468767 4.40635343 -3.27645102 2.73792976 -3.5625 1.0625 C-2.5625 0.0625 -2.5625 0.0625 0 0 Z " fill="#134599" transform="translate(802.5625,902.9375)"/>
<path d="M0 0 C0.33 0 0.66 0 1 0 C1.2494783 7.29031024 0.72330907 13.90673679 -1 21 C-1.33 21 -1.66 21 -2 21 C-2.3690205 6.21867882 -2.3690205 6.21867882 0 0 Z " fill="#2A82C8" transform="translate(1075,669)"/>
<path d="M0 0 C-0.71027344 0.26554688 -1.42054688 0.53109375 -2.15234375 0.8046875 C-3.53099609 1.33449219 -3.53099609 1.33449219 -4.9375 1.875 C-6.31228516 2.39707031 -6.31228516 2.39707031 -7.71484375 2.9296875 C-10.14941056 3.7819086 -10.14941056 3.7819086 -11 6 C-13.32156597 6.40729228 -15.6568787 6.74438677 -18 7 C-14.03439709 1.95286902 -6.37264477 -2.28648134 0 0 Z " fill="#3180BF" transform="translate(494,670)"/>
<path d="M0 0 C-0.66 1.65 -1.32 3.3 -2 5 C-3.65 5 -5.3 5 -7 5 C-7.33 7.31 -7.66 9.62 -8 12 C-8.33 12 -8.66 12 -9 12 C-8.125 4.375 -8.125 4.375 -7 1 C-2.25 0 -2.25 0 0 0 Z " fill="#010F27" transform="translate(759,920)"/>
<path d="M0 0 C2 2 2 2 2.125 5.625 C2.08375 6.73875 2.0425 7.8525 2 9 C2.66 9 3.32 9 4 9 C4 13.95 4 18.9 4 24 C3.67 24 3.34 24 3 24 C2.01 16.08 1.02 8.16 0 0 Z " fill="#03203F" transform="translate(1073,605)"/>
<path d="M0 0 C1.65 0.33 3.3 0.66 5 1 C4.67 2.65 4.34 4.3 4 6 C2.35 5.67 0.7 5.34 -1 5 C-0.67 3.35 -0.34 1.7 0 0 Z " fill="#12459B" transform="translate(586,903)"/>
<path d="M0 0 C1.875 0.1875 1.875 0.1875 4 1 C4.66 2.65 5.32 4.3 6 6 C-0.435 6.495 -0.435 6.495 -7 7 C-6.67 6.34 -6.34 5.68 -6 5 C-4.35 5 -2.7 5 -1 5 C-0.67 3.35 -0.34 1.7 0 0 Z " fill="#04122D" transform="translate(794,903)"/>
<path d="M0 0 C0.66 0.33 1.32 0.66 2 1 C1.01 1.33 0.02 1.66 -1 2 C-1 2.66 -1 3.32 -1 4 C-2.56159059 4.48212214 -4.12431928 4.96055873 -5.6875 5.4375 C-6.55761719 5.70433594 -7.42773438 5.97117187 -8.32421875 6.24609375 C-10.87025921 6.96344529 -13.4003423 7.517541 -16 8 C-15.01 7.67 -14.02 7.34 -13 7 C-13 6.34 -13 5.68 -13 5 C-10.36 4.67 -7.72 4.34 -5 4 C-5 3.34 -5 2.68 -5 2 C-2.625 0.9375 -2.625 0.9375 0 0 Z " fill="#062849" transform="translate(517,696)"/>
<path d="M0 0 C0.99 0.33 1.98 0.66 3 1 C3.25 3.8125 3.25 3.8125 3 7 C1 8.875 1 8.875 -1 10 C-0.67 10.66 -0.34 11.32 0 12 C-1.65 12 -3.3 12 -5 12 C-5.33 10.68 -5.66 9.36 -6 8 C-3.69 7.34 -1.38 6.68 1 6 C0.67 4.02 0.34 2.04 0 0 Z " fill="#000921" transform="translate(686,937)"/>
<path d="M0 0 C2.97 0.495 2.97 0.495 6 1 C5.67 2.65 5.34 4.3 5 6 C3.68 6 2.36 6 1 6 C0.67 4.02 0.34 2.04 0 0 Z " fill="#11449A" transform="translate(657,915)"/>
<path d="M0 0 C0.66 0 1.32 0 2 0 C0.58832253 5.26170694 -1.74850232 8.72171358 -5 13 C-6.04449911 9.86650268 -5.93423645 9.01031744 -5 6 C-4.01 6 -3.02 6 -2 6 C-1.855625 5.38125 -1.71125 4.7625 -1.5625 4.125 C-1 2 -1 2 0 0 Z " fill="#2D8DDA" transform="translate(1051,746)"/>
<path d="M0 0 C3.3 0.99 6.6 1.98 10 3 C10 3.66 10 4.32 10 5 C11.65 5.33 13.3 5.66 15 6 C15 6.33 15 6.66 15 7 C12.03 6.67 9.06 6.34 6 6 C6 5.34 6 4.68 6 4 C3.69 3.34 1.38 2.68 -1 2 C-0.67 1.34 -0.34 0.68 0 0 Z " fill="#2C87CF" transform="translate(518,599)"/>
<path d="M0 0 C1.65 0 3.3 0 5 0 C5 1.98 5 3.96 5 6 C3.35 6 1.7 6 0 6 C0 4.02 0 2.04 0 0 Z " fill="#124398" transform="translate(573,951)"/>
<path d="M0 0 C0.33 0 0.66 0 1 0 C1.20674944 5.78898419 0.59162079 10.42932723 -1 16 C-1.66 16 -2.32 16 -3 16 C-2.40984815 10.49191603 -1.43336231 5.35121931 0 0 Z " fill="#031E3C" transform="translate(1071,700)"/>
<path d="M0 0 C2.31 0 4.62 0 7 0 C7.33 2.97 7.66 5.94 8 9 C7.01 9.495 7.01 9.495 6 10 C6 8.02 6 6.04 6 4 C3.50935112 3.31292445 1.62113708 3 -1 3 C-0.67 2.01 -0.34 1.02 0 0 Z " fill="#030F2A" transform="translate(549,947)"/>
<path d="M0 0 C6.18160604 0.53753096 11.326858 2.54582388 17 5 C16.67 5.66 16.34 6.32 16 7 C10.55123997 5.27933894 5.28830549 3.15294651 0 1 C0 0.67 0 0.34 0 0 Z " fill="#2F89D2" transform="translate(280,538)"/>
<path d="M0 0 C2.31 0.33 4.62 0.66 7 1 C6.67 1.99 6.34 2.98 6 4 C4.02 4 2.04 4 0 4 C-0.33 5.98 -0.66 7.96 -1 10 C-1.33 10 -1.66 10 -2 10 C-1.54177532 6.53058454 -1.10868317 3.32604951 0 0 Z " fill="#000415" transform="translate(656,909)"/>
<path d="M0 0 C1.69911188 5.19996655 -0.89923729 8.74053969 -3.1875 13.4375 C-3.455625 13.953125 -3.72375 14.46875 -4 15 C-4.66 15 -5.32 15 -6 15 C-4.40109514 9.80355921 -2.25861997 4.93387858 0 0 Z " fill="#021C39" transform="translate(1061,731)"/>
<path d="M0 0 C-0.969375 0.268125 -1.93875 0.53625 -2.9375 0.8125 C-3.948125 1.204375 -4.95875 1.59625 -6 2 C-6.33 2.99 -6.66 3.98 -7 5 C-9.64 5 -12.28 5 -15 5 C-12.30932731 3.20621821 -9.91421743 2.02686042 -6.9375 0.8125 C-5.62072266 0.26529297 -5.62072266 0.26529297 -4.27734375 -0.29296875 C-2 -1 -2 -1 0 0 Z " fill="#2A75B0" transform="translate(445,690)"/>
<path d="M0 0 C3.96060927 0.27004154 5.53714607 0.48571786 8.25 3.5 C8.8275 4.325 9.405 5.15 10 6 C10.66 6.33 11.32 6.66 12 7 C11.67 7.66 11.34 8.32 11 9 C9.16384919 7.69144447 7.33114211 6.37805538 5.5 5.0625 C4.4790625 4.33160156 3.458125 3.60070312 2.40625 2.84765625 C1.6121875 2.23792969 0.818125 1.62820313 0 1 C0 0.67 0 0.34 0 0 Z " fill="#287BBD" transform="translate(988,536)"/>
<path d="M0 0 C1.65 0 3.3 0 5 0 C5.5625 1.9375 5.5625 1.9375 6 4 C5 5 5 5 2.4375 5.0625 C1.2309375 5.0315625 1.2309375 5.0315625 0 5 C0 3.35 0 1.7 0 0 Z " fill="#12459A" transform="translate(645,926)"/>
<path d="M0 0 C2.97 0.495 2.97 0.495 6 1 C6 2.32 6 3.64 6 5 C4.35 5 2.7 5 1 5 C0.67 3.35 0.34 1.7 0 0 Z " fill="#0C469D" transform="translate(681,903)"/>
<path d="M0 0 C2.375 -0.125 2.375 -0.125 5 0 C7 2 7 2 7.1875 5.0625 C7 8 7 8 6 9 C4.00041636 9.04080783 1.99954746 9.04254356 0 9 C0 8.67 0 8.34 0 8 C1.65 7.67 3.3 7.34 5 7 C5.33 5.68 5.66 4.36 6 3 C4.02 3 2.04 3 0 3 C0 2.01 0 1.02 0 0 Z " fill="#132F61" transform="translate(776,901)"/>
<path d="M0 0 C4.62 1.65 9.24 3.3 14 5 C9.03429151 6.24142712 6.84452938 5.37261666 2 4 C2 3.34 2 2.68 2 2 C1.34 2 0.68 2 0 2 C0 1.34 0 0.68 0 0 Z " fill="#042243" transform="translate(332,560)"/>
<path d="M0 0 C1.98 0 3.96 0 6 0 C6 1.32 6 2.64 6 4 C4.02 4.33 2.04 4.66 0 5 C0 3.35 0 1.7 0 0 Z " fill="#0E469C" transform="translate(633,939)"/>
<path d="M0 0 C1.65 0 3.3 0 5 0 C5.33 0.99 5.66 1.98 6 3 C5.67 3.66 5.34 4.32 5 5 C3.35 4.67 1.7 4.34 0 4 C0 2.68 0 1.36 0 0 Z " fill="#10479D" transform="translate(764,903)"/>
<path d="M0 0 C2.5625 0.1875 2.5625 0.1875 4.5625 2.1875 C4.6875 4.8125 4.6875 4.8125 4.5625 7.1875 C3.9025 5.8675 3.2425 4.5475 2.5625 3.1875 C1.2425 3.1875 -0.0775 3.1875 -1.4375 3.1875 C-1.4375 4.8375 -1.4375 6.4875 -1.4375 8.1875 C-2.0975 8.1875 -2.7575 8.1875 -3.4375 8.1875 C-3.47991723 5.85455225 -3.47842937 3.52047433 -3.4375 1.1875 C-2.4375 0.1875 -2.4375 0.1875 0 0 Z " fill="#163671" transform="translate(611.4375,900.8125)"/>
<path d="M0 0 C1.91360971 0.21648378 3.83083621 0.40256968 5.75 0.5625 C6.73484375 0.64628906 7.7196875 0.73007812 8.734375 0.81640625 C9.85585938 0.90728516 9.85585938 0.90728516 11 1 C11 1.33 11 1.66 11 2 C5.39 2 -0.22 2 -6 2 C-6 1.34 -6 0.68 -6 0 C-3.43498177 -1.28250912 -2.72534414 -0.72898191 0 0 Z " fill="#00183A" transform="translate(340,774)"/>
<path d="M0 0 C0.33 1.32 0.66 2.64 1 4 C-1.25 6.5625 -1.25 6.5625 -4 9 C-4.598125 9.598125 -5.19625 10.19625 -5.8125 10.8125 C-6.204375 11.204375 -6.59625 11.59625 -7 12 C-7.66 11.67 -8.32 11.34 -9 11 C-6.03 7.37 -3.06 3.74 0 0 Z " fill="#3078B1" transform="translate(1013,736)"/>
<path d="M0 0 C-3.85930302 2.57286868 -7.46409083 4.01034709 -12 5 C-14.21484375 4.546875 -14.21484375 4.546875 -16 4 C-14.08959948 3.1319092 -12.17139263 2.28098217 -10.25 1.4375 C-9.18265625 0.96183594 -8.1153125 0.48617187 -7.015625 -0.00390625 C-4.01630163 -0.9946154 -2.86578759 -1.16161779 0 0 Z " fill="#2D76B1" transform="translate(342,734)"/>
<path d="M0 0 C0 0.66 0 1.32 0 2 C-0.99 2 -1.98 2 -3 2 C-3.33 2.99 -3.66 3.98 -4 5 C-6.9375 6.75 -6.9375 6.75 -10 8 C-10.66 7.67 -11.32 7.34 -12 7 C-10.68 6.67 -9.36 6.34 -8 6 C-7.938125 5.38125 -7.87625 4.7625 -7.8125 4.125 C-7 2 -7 2 -4.5625 0.75 C-2 0 -2 0 0 0 Z " fill="#2B86CE" transform="translate(532,652)"/>
<path d="M0 0 C1.79323253 0.28187936 3.58457126 0.5758281 5.375 0.875 C6.37273438 1.03742187 7.37046875 1.19984375 8.3984375 1.3671875 C11 2 11 2 13 4 C4.80743982 4.63019694 4.80743982 4.63019694 1.4375 2 C0.7259375 1.01 0.7259375 1.01 0 0 Z " fill="#011935" transform="translate(949,520)"/>
<path d="M0 0 C2.0625 0.4375 2.0625 0.4375 4 1 C4 2.65 4 4.3 4 6 C2.68 6 1.36 6 0 6 C-0.38218767 4.34385343 -0.71395102 2.67542976 -1 1 C-0.67 0.67 -0.34 0.34 0 0 Z " fill="#144599" transform="translate(622,927)"/>
<path d="M0 0 C1.65 0 3.3 0 5 0 C5 1.65 5 3.3 5 5 C3.35 5 1.7 5 0 5 C0 3.35 0 1.7 0 0 Z " fill="#11479F" transform="translate(729,927)"/>
<path d="M0 0 C2.97 0.495 2.97 0.495 6 1 C6 2.65 6 4.3 6 6 C4.02 6.66 2.04 7.32 0 8 C0.185625 7.05125 0.37125 6.1025 0.5625 5.125 C1.28686632 2.10131207 1.28686632 2.10131207 0 0 Z " fill="#030F2B" transform="translate(578,901)"/>
<path d="M0 0 C1.32 0 2.64 0 4 0 C4 1.65 4 3.3 4 5 C2.35 5 0.7 5 -1 5 C-0.67 3.35 -0.34 1.7 0 0 Z " fill="#10469F" transform="translate(777,950)"/>
<path d="M0 0 C1.65 0 3.3 0 5 0 C5 1.65 5 3.3 5 5 C3.35 4.67 1.7 4.34 0 4 C0 2.68 0 1.36 0 0 Z " fill="#1048A1" transform="translate(788,951)"/>
<path d="M0 0 C2.475 0.495 2.475 0.495 5 1 C5 2.32 5 3.64 5 5 C3.35 5 1.7 5 0 5 C0 3.35 0 1.7 0 0 Z " fill="#10499C" transform="translate(753,939)"/>
<path d="M0 0 C1.4540625 0.0309375 1.4540625 0.0309375 2.9375 0.0625 C2.6075 0.7225 2.2775 1.3825 1.9375 2.0625 C0.9475 2.0625 -0.0425 2.0625 -1.0625 2.0625 C-1.0625 3.0525 -1.0625 4.0425 -1.0625 5.0625 C-0.0725 5.7225 0.9175 6.3825 1.9375 7.0625 C0.27138095 7.105221 -1.39632885 7.10313832 -3.0625 7.0625 C-4.0625 6.0625 -4.0625 6.0625 -4.1875 3.5625 C-4.00295237 -0.12845252 -3.76342282 0.07680455 0 0 Z " fill="#1B3C76" transform="translate(683.0625,913.9375)"/>
<path d="M0 0 C1.32 0 2.64 0 4 0 C4 1.65 4 3.3 4 5 C2.35 5 0.7 5 -1 5 C-0.67 3.35 -0.34 1.7 0 0 Z " fill="#1247A1" transform="translate(610,914)"/>
<path d="M0 0 C2 1 4 2 6 3 C6 4.65 6 6.3 6 8 C4.68 8 3.36 8 2 8 C1.34 5.36 0.68 2.72 0 0 Z " fill="#020B21" transform="translate(554,901)"/>
<path d="M0 0 C0.89203125 0.01804687 1.7840625 0.03609375 2.703125 0.0546875 C3.71632813 0.08949219 3.71632813 0.08949219 4.75 0.125 C4.42 0.785 4.09 1.445 3.75 2.125 C-0.715589 3.61352967 -4.69878513 2.81925312 -9.25 2.125 C-6.03817851 0.21891902 -3.71117397 -0.09766247 0 0 Z " fill="#298AD7" transform="translate(969.25,771.875)"/>
<path d="M0 0 C-2.52480693 2.52480693 -4.13823034 2.55738633 -7.625 3.125 C-8.62789062 3.29257812 -9.63078125 3.46015625 -10.6640625 3.6328125 C-11.43492187 3.75398437 -12.20578125 3.87515625 -13 4 C-12.67 3.01 -12.34 2.02 -12 1 C-7.93631321 0.22596442 -4.13574827 -0.0984702 0 0 Z " fill="#041A31" transform="translate(970,770)"/>
<path d="M0 0 C0 0.66 0 1.32 0 2 C-3.03525486 4.02350324 -4.19426202 4.32124018 -7.6875 4.625 C-8.49574219 4.69976563 -9.30398438 4.77453125 -10.13671875 4.8515625 C-11.05904297 4.92503906 -11.05904297 4.92503906 -12 5 C-11 3 -11 3 -9.00390625 2.1484375 C-8.19824219 1.89320313 -7.39257812 1.63796875 -6.5625 1.375 C-5.75941406 1.11460937 -4.95632813 0.85421875 -4.12890625 0.5859375 C-2 0 -2 0 0 0 Z " fill="#062545" transform="translate(438,731)"/>
<path d="M0 0 C1.37095624 3.69037278 0.60010967 5.70883835 -0.9375 9.25 C-1.31777344 10.14203125 -1.69804688 11.0340625 -2.08984375 11.953125 C-2.39019531 12.62859375 -2.69054688 13.3040625 -3 14 C-3.66 14 -4.32 14 -5 14 C-4.54636829 12.41531323 -4.08688548 10.83230076 -3.625 9.25 C-3.36976562 8.36828125 -3.11453125 7.4865625 -2.8515625 6.578125 C-2.0790066 4.23919428 -1.16374324 2.16557438 0 0 Z " fill="#26689B" transform="translate(1030,702)"/>
<path d="M0 0 C2.475 0.99 2.475 0.99 5 2 C1.8745041 4.64465038 -1.08788267 5.84414715 -5 7 C-4.67 6.01 -4.34 5.02 -4 4 C-2.68 4 -1.36 4 0 4 C0 2.68 0 1.36 0 0 Z " fill="#042546" transform="translate(537,645)"/>
<path d="M0 0 C5.71658336 -0.45732667 8.48649253 0.47726246 13 4 C11 5 11 5 8.3984375 4.22265625 C6.90183594 3.64837891 6.90183594 3.64837891 5.375 3.0625 C4.37210938 2.68222656 3.36921875 2.30195312 2.3359375 1.91015625 C1.56507813 1.60980469 0.79421875 1.30945313 0 1 C0 0.67 0 0.34 0 0 Z " fill="#031831" transform="translate(560,616)"/>
<path d="M0 0 C1.60746056 0.42523816 3.21089836 0.86570126 4.8125 1.3125 C6.15248047 1.67794922 6.15248047 1.67794922 7.51953125 2.05078125 C10.05247738 3.0200819 11.2716496 3.95009604 13 6 C10.03 5.505 10.03 5.505 7 5 C7 4.34 7 3.68 7 3 C4.36 2.67 1.72 2.34 -1 2 C-0.67 1.34 -0.34 0.68 0 0 Z " fill="#032141" transform="translate(406,591)"/>
<path d="M0 0 C5.06998019 0.65419099 9.41990777 2.8546409 14 5 C10.30962722 6.37095624 8.29116165 5.60010967 4.75 4.0625 C3.85796875 3.68222656 2.9659375 3.30195312 2.046875 2.91015625 C1.37140625 2.60980469 0.6959375 2.30945313 0 2 C0 1.34 0 0.68 0 0 Z " fill="#00142E" transform="translate(357,571)"/>
<path d="M0 0 C3.96 0 7.92 0 12 0 C12 0.33 12 0.66 12 1 C10.35 1 8.7 1 7 1 C7.66 2.32 8.32 3.64 9 5 C7.02 4.34 5.04 3.68 3 3 C3 2.34 3 1.68 3 1 C2.01 0.67 1.02 0.34 0 0 Z " fill="#000C1E" transform="translate(337,522)"/>
<path d="M0 0 C1.32 0 2.64 0 4 0 C4 1.65 4 3.3 4 5 C2.35 5 0.7 5 -1 5 C-0.67 3.35 -0.34 1.7 0 0 Z " fill="#1247A2" transform="translate(574,927)"/>
<path d="M0 0 C0.99 0.33 1.98 0.66 3 1 C3 2.32 3 3.64 3 5 C1.35 5 -0.3 5 -2 5 C-2.33 4.01 -2.66 3.02 -3 2 C-2.01 1.34 -1.02 0.68 0 0 Z " fill="#0F479F" transform="translate(564,927)"/>
<path d="M0 0 C0.66 0.33 1.32 0.66 2 1 C2.042721 2.66611905 2.04063832 4.33382885 2 6 C1 7 1 7 -0.84765625 7.09765625 C-2.8984375 7.06510417 -4.94921875 7.03255208 -7 7 C-7.33 6.34 -7.66 5.68 -8 5 C-5.36 5 -2.72 5 0 5 C0 3.35 0 1.7 0 0 Z " fill="#010C27" transform="translate(616,915)"/>
<path d="M0 0 C0.66 0.33 1.32 0.66 2 1 C1.34 2.32 0.68 3.64 0 5 C-0.33 4.34 -0.66 3.68 -1 3 C-2.65 3.33 -4.3 3.66 -6 4 C-3.94766315 1.7522025 -2.99332739 0.9977758 0 0 Z M-4 5 C-3.01 5.33 -2.02 5.66 -1 6 C-2.32 6.33 -3.64 6.66 -5 7 C-4.67 6.34 -4.34 5.68 -4 5 Z " fill="#2D96EA" transform="translate(374,719)"/>
<path d="M0 0 C-2 3 -2 3 -3.9453125 3.51171875 C-4.66460938 3.56972656 -5.38390625 3.62773438 -6.125 3.6875 C-8.043125 3.8421875 -8.043125 3.8421875 -10 4 C-9.34 3.67 -8.68 3.34 -8 3 C-8 2.34 -8 1.68 -8 1 C-2.25 -1.125 -2.25 -1.125 0 0 Z " fill="#041E3A" transform="translate(538,689)"/>
<path d="M0 0 C0 2.31 0 4.62 0 7 C-1.98 6.34 -3.96 5.68 -6 5 C-5.34 4.34 -4.68 3.68 -4 3 C-4.66 2.34 -5.32 1.68 -6 1 C-3.92446352 0.4465236 -2.15634036 0 0 0 Z " fill="#010E27" transform="translate(735,944)"/>
<path d="M0 0 C1.32 0.66 2.64 1.32 4 2 C3.01 3.485 3.01 3.485 2 5 C1.34 5 0.68 5 0 5 C0 5.66 0 6.32 0 7 C-0.99 7.33 -1.98 7.66 -3 8 C-2.67 6.35 -2.34 4.7 -2 3 C-1.01 3 -0.02 3 1 3 C0.67 2.01 0.34 1.02 0 0 Z " fill="#2B8FDF" transform="translate(1028,772)"/>
<path d="M0 0 C-0.33 0.99 -0.66 1.98 -1 3 C-5.09724467 4.54613006 -7.81857651 5.29227216 -12 4 C-10.3767313 3.3291288 -8.75132422 2.66342971 -7.125 2 C-6.22007812 1.62875 -5.31515625 1.2575 -4.3828125 0.875 C-2 0 -2 0 0 0 Z " fill="#2C79B5" transform="translate(300,750)"/>
<path d="M0 0 C-0.33 0.66 -0.66 1.32 -1 2 C-8.64288227 4.38056989 -8.64288227 4.38056989 -13 3 C-11.21189234 2.30329584 -9.41937948 1.61788811 -7.625 0.9375 C-6.62726563 0.55464844 -5.62953125 0.17179688 -4.6015625 -0.22265625 C-2 -1 -2 -1 0 0 Z " fill="#02203F" transform="translate(487,711)"/>
<path d="M0 0 C2.72869407 0.03287583 5.2966618 0.56397771 8 1 C5.40517871 3.59482129 3.60116375 3.69990302 0 4 C-0.66 3.34 -1.32 2.68 -2 2 C-1.34 1.34 -0.68 0.68 0 0 Z " fill="#2686D2" transform="translate(522,690)"/>
<path d="M0 0 C0 0.66 0 1.32 0 2 C0.639375 2.12375 1.27875 2.2475 1.9375 2.375 C2.618125 2.58125 3.29875 2.7875 4 3 C4.33 3.66 4.66 4.32 5 5 C3.56068883 4.54738642 2.12361001 4.08767021 0.6875 3.625 C-0.11300781 3.36976563 -0.91351563 3.11453125 -1.73828125 2.8515625 C-4 2 -4 2 -7 0 C-2.25 -1.125 -2.25 -1.125 0 0 Z " fill="#051F3B" transform="translate(497,587)"/>
<path d="M0 0 C1.79408332 0.6180287 3.58520478 1.24466081 5.375 1.875 C6.87160156 2.39707031 6.87160156 2.39707031 8.3984375 2.9296875 C11 4 11 4 13 6 C10.69 5.67 8.38 5.34 6 5 C6 4.34 6 3.68 6 3 C3.03 2.505 3.03 2.505 0 2 C0 1.34 0 0.68 0 0 Z " fill="#318AD0" transform="translate(477,582)"/>
<path d="M0 0 C3.26008643 3.16952847 6.22237877 6.39937989 9 10 C6.37812506 8.95125002 5.20628639 8.35068687 3.75 5.875 C3.5025 5.25625 3.255 4.6375 3 4 C2.01 4.33 1.02 4.66 0 5 C0 3.35 0 1.7 0 0 Z " fill="#031C39" transform="translate(1004,550)"/>
<path d="M0 0 C4.84659077 0.59104765 8.60748167 1.97944157 13 4 C9.57056481 5.18771723 7.62215325 4.80226223 4.25 3.5625 C3.45078125 3.27503906 2.6515625 2.98757813 1.828125 2.69140625 C1.22484375 2.46324219 0.6215625 2.23507812 0 2 C0 1.34 0 0.68 0 0 Z " fill="#3489CC" transform="translate(394,548)"/>
<path d="M0 0 C2.97 0.495 2.97 0.495 6 1 C5.67 1.99 5.34 2.98 5 4 C5.99 4 6.98 4 8 4 C7.67 5.32 7.34 6.64 7 8 C5.83035398 6.8572081 4.66435444 5.71068285 3.5 4.5625 C2.8503125 3.92441406 2.200625 3.28632812 1.53125 2.62890625 C0 1 0 1 0 0 Z " fill="#02172D" transform="translate(1030,519)"/>
<path d="M0 0 C3.9492568 0.55105909 7.34920174 1.38935371 11 3 C11 3.33 11 3.66 11 4 C7.7 3.67 4.4 3.34 1 3 C0.67 2.01 0.34 1.02 0 0 Z " fill="#308ED9" transform="translate(978,490)"/>
<path d="M0 0 C1.32 0 2.64 0 4 0 C4.33 1.65 4.66 3.3 5 5 C3.35 5 1.7 5 0 5 C0 3.35 0 1.7 0 0 Z " fill="#0E479E" transform="translate(681,927)"/>
<path d="M0 0 C1.98 0 3.96 0 6 0 C2.37464179 3.17218843 -1.51150278 4.42902597 -6 6 C-6 5.34 -6 4.68 -6 4 C-4.35 3.67 -2.7 3.34 -1 3 C-0.67 2.01 -0.34 1.02 0 0 Z " fill="#011226" transform="translate(976,764)"/>
<path d="M0 0 C1 2 1 2 -0.125 5.5 C-2 9 -2 9 -4.6875 10.4375 C-5.450625 10.623125 -6.21375 10.80875 -7 11 C-5.22054913 6.95579349 -2.60470327 3.53921513 0 0 Z " fill="#052648" transform="translate(1050,752)"/>
<path d="M0 0 C0 0.66 0 1.32 0 2 C-2.65228812 3.07525194 -5.28368454 4.09456151 -8 5 C-10.1875 4.0625 -10.1875 4.0625 -12 3 C-10.37604003 2.49663233 -8.75079459 1.99741024 -7.125 1.5 C-6.22007812 1.2215625 -5.31515625 0.943125 -4.3828125 0.65625 C-2 0 -2 0 0 0 Z " fill="#2D92E2" transform="translate(294,754)"/>
<path d="M0 0 C2.64 0.66 5.28 1.32 8 2 C8 2.66 8 3.32 8 4 C8.99 4.33 9.98 4.66 11 5 C6.94393835 4.53199289 3.53411321 4.12046792 0 2 C0 1.34 0 0.68 0 0 Z " fill="#021C37" transform="translate(512,635)"/>
<path d="M0 0 C8.57142857 0.85714286 8.57142857 0.85714286 12 3 C12 3.66 12 4.32 12 5 C10.37276701 4.54965877 8.74826336 4.08944646 7.125 3.625 C5.76761719 3.24214844 5.76761719 3.24214844 4.3828125 2.8515625 C2 2 2 2 0 0 Z " fill="#07213D" transform="translate(514,597)"/>
<path d="M0 0 C1.32 0 2.64 0 4 0 C4 1.65 4 3.3 4 5 C2.68 5 1.36 5 0 5 C0 3.35 0 1.7 0 0 Z " fill="#1047A3" transform="translate(765,951)"/>
<path d="M0 0 C2.475 0.495 2.475 0.495 5 1 C5 1.99 5 2.98 5 4 C3.68 4.33 2.36 4.66 1 5 C0.67 3.35 0.34 1.7 0 0 Z " fill="#0D48A2" transform="translate(729,939)"/>
<path d="M0 0 C1.65 0 3.3 0 5 0 C5 1.32 5 2.64 5 4 C3.35 4 1.7 4 0 4 C0 2.68 0 1.36 0 0 Z " fill="#0C47A2" transform="translate(538,915)"/>
<path d="M0 0 C1.32 0 2.64 0 4 0 C4 1.65 4 3.3 4 5 C2.02 5.33 0.04 5.66 -2 6 C-1.34 5.67 -0.68 5.34 0 5 C0 3.35 0 1.7 0 0 Z " fill="#030C23" transform="translate(568,904)"/>
<path d="M0 0 C0.66 0.33 1.32 0.66 2 1 C-0.51830747 4.12270126 -1.7261549 4.94523098 -5.75 5.75 C-7.35875 5.87375 -7.35875 5.87375 -9 6 C-7.73295613 3.46591226 -6.56876843 3.06790028 -4.0625 1.8125 C-3.35222656 1.44769531 -2.64195312 1.08289063 -1.91015625 0.70703125 C-1.27980469 0.47371094 -0.64945313 0.24039063 0 0 Z " fill="#093257" transform="translate(1003,794)"/>
<path d="M0 0 C-0.625 1.875 -0.625 1.875 -2 4 C-5.125 5.25 -5.125 5.25 -8 6 C-7.8125 4.125 -7.8125 4.125 -7 2 C-4.55683729 0.74709605 -2.75474605 0 0 0 Z " fill="#011329" transform="translate(388,752)"/>
<path d="M0 0 C0.33 0 0.66 0 1 0 C1.36923077 5.41538462 1.36923077 5.41538462 -0.5 8.375 C-0.995 8.91125 -1.49 9.4475 -2 10 C-2.25 3.375 -2.25 3.375 0 0 Z " fill="#288EDC" transform="translate(1059,730)"/>
<path d="M0 0 C-0.33 0.66 -0.66 1.32 -1 2 C-3.28515625 2.6328125 -3.28515625 2.6328125 -6.0625 3.125 C-6.98160156 3.29257812 -7.90070313 3.46015625 -8.84765625 3.6328125 C-9.91306641 3.81457031 -9.91306641 3.81457031 -11 4 C-9.71264403 1.42528807 -8.71510189 1.29583343 -6.0625 0.3125 C-5.35222656 0.04050781 -4.64195312 -0.23148438 -3.91015625 -0.51171875 C-2 -1 -2 -1 0 0 Z " fill="#2A76B2" transform="translate(357,727)"/>
<path d="M0 0 C-3.64116773 3.33773709 -7.28607242 3.97864902 -12 5 C-12 4.34 -12 3.68 -12 3 C-4.71428571 -0.42857143 -4.71428571 -0.42857143 0 0 Z " fill="#031834" transform="translate(384,714)"/>
<path d="M0 0 C5.4611399 0.35233161 5.4611399 0.35233161 8 1 C9.5 3.0625 9.5 3.0625 10 5 C6.08788267 3.84414715 3.1254959 2.64465038 0 0 Z " fill="#1E6CA9" transform="translate(526,640)"/>
<path d="M0 0 C1.46067199 0.45082469 2.91848032 0.91093537 4.375 1.375 C5.18710937 1.63023437 5.99921875 1.88546875 6.8359375 2.1484375 C9 3 9 3 11 5 C6.94393835 4.53199289 3.53411321 4.12046792 0 2 C0 1.34 0 0.68 0 0 Z " fill="#318BD1" transform="translate(335,523)"/>
<path d="M0 0 C1.32 0 2.64 0 4 0 C4 1.32 4 2.64 4 4 C2.35 4 0.7 4 -1 4 C-0.67 2.68 -0.34 1.36 0 0 Z " fill="#0D47A3" transform="translate(682,939)"/>
<path d="M0 0 C1.99954746 -0.04254356 4.00041636 -0.04080783 6 0 C7 1 7 1 7.0625 4.0625 C7.041875 5.031875 7.02125 6.00125 7 7 C6.6596875 6.0409375 6.6596875 6.0409375 6.3125 5.0625 C5.14749104 2.72806339 5.14749104 2.72806339 2.375 2.25 C1.59125 2.1675 0.8075 2.085 0 2 C0 1.34 0 0.68 0 0 Z " fill="#123467" transform="translate(728,937)"/>
<path d="M0 0 C0.33 1.98 0.66 3.96 1 6 C-0.65 5.67 -2.3 5.34 -4 5 C-4 3.68 -4 2.36 -4 1 C-1 0 -1 0 0 0 Z " fill="#030F2A" transform="translate(775,903)"/>
<path d="M0 0 C1.32 0 2.64 0 4 0 C4 1.65 4 3.3 4 5 C2.68 4.67 1.36 4.34 0 4 C0 2.68 0 1.36 0 0 Z " fill="#0B48A6" transform="translate(729,903)"/>
<path d="M0 0 C0.66 0.33 1.32 0.66 2 1 C1.01 2.485 1.01 2.485 0 4 C-1.9453125 4.29296875 -1.9453125 4.29296875 -4.125 4.1875 C-5.40375 4.125625 -6.6825 4.06375 -8 4 C-5.31143836 2.20762558 -3.0466145 1.01553817 0 0 Z " fill="#2E7EBD" transform="translate(405,705)"/>
<path d="M0 0 C3.24208567 0.35049575 4.61527704 0.56221181 6.8125 3.0625 C7.204375 3.701875 7.59625 4.34125 8 5 C7.67 5.66 7.34 6.32 7 7 C5.83040013 6.02433888 4.66438823 5.044375 3.5 4.0625 C2.8503125 3.51722656 2.200625 2.97195313 1.53125 2.41015625 C1.0259375 1.94480469 0.520625 1.47945312 0 1 C0 0.67 0 0.34 0 0 Z " fill="#2973B2" transform="translate(1000,546)"/>
<path d="M0 0 C1.48199902 0.44909061 2.96055236 0.90956564 4.4375 1.375 C5.26121094 1.63023437 6.08492188 1.88546875 6.93359375 2.1484375 C9 3 9 3 10 5 C6.05140217 4.4359146 3.29120954 3.2568294 0 1 C0 0.67 0 0.34 0 0 Z " fill="#072D51" transform="translate(281,539)"/>
<path d="M0 0 C1.65 0.33 3.3 0.66 5 1 C5.33 3.31 5.66 5.62 6 8 C5.6596875 7.071875 5.6596875 7.071875 5.3125 6.125 C3.62070165 3.38589791 2.00755839 2.94975528 -1 2 C-0.67 1.34 -0.34 0.68 0 0 Z " fill="#010D25" transform="translate(563,947)"/>
<path d="M0 0 C3 3.75 3 3.75 3 6 C4.98 6 6.96 6 9 6 C9 6.33 9 6.66 9 7 C2.25 7.125 2.25 7.125 0 6 C0 4.02 0 2.04 0 0 Z " fill="#00061D" transform="translate(535,916)"/>
<path d="M0 0 C2.475 0.495 2.475 0.495 5 1 C4.67 1.99 4.34 2.98 4 4 C2.68 4 1.36 4 0 4 C0 2.68 0 1.36 0 0 Z " fill="#0E47A4" transform="translate(729,915)"/>
<path d="M0 0 C1.65 0.33 3.3 0.66 5 1 C2.31158141 3.25245881 0.35358125 4.88213958 -3 6 C-3 5.01 -3 4.02 -3 3 C-2.01 3 -1.02 3 0 3 C0 2.01 0 1.02 0 0 Z " fill="#308EDD" transform="translate(1011,786)"/>
<path d="M0 0 C-3.20336822 2.83374881 -5.78087253 3.5205537 -10 4 C-9.67 3.01 -9.34 2.02 -9 1 C-6.03421164 -0.16513114 -3.15436364 -0.08762121 0 0 Z " fill="#2A85CC" transform="translate(344,770)"/>
<path d="M0 0 C0.33 0.99 0.66 1.98 1 3 C-0.75 5.6875 -0.75 5.6875 -3 8 C-3.99 8 -4.98 8 -6 8 C-6 6 -6 6 -3.5625 3.4375 C-2.716875 2.633125 -1.87125 1.82875 -1 1 C-0.67 0.67 -0.34 0.34 0 0 Z " fill="#2B94E8" transform="translate(1010,742)"/>
<path d="M0 0 C1.27875 -0.061875 2.5575 -0.12375 3.875 -0.1875 C4.95394531 -0.23970703 4.95394531 -0.23970703 6.0546875 -0.29296875 C6.69664062 -0.19628906 7.33859375 -0.09960938 8 0 C8.66 0.99 9.32 1.98 10 3 C3.375 2.25 3.375 2.25 0 0 Z " fill="#267BBE" transform="translate(498,629)"/>
<path d="M0 0 C2.97 0.99 5.94 1.98 9 3 C5.16380575 3.95904856 3.67568464 3.91892116 0 3 C0 2.01 0 1.02 0 0 Z " fill="#000B1F" transform="translate(448,609)"/>
<path d="M0 0 C1.43836751 0.11458693 2.87570966 0.24209116 4.3125 0.375 C5.51326172 0.47941406 5.51326172 0.47941406 6.73828125 0.5859375 C9 1 9 1 12 3 C8.69564916 4.12377697 6.9493138 3.89554742 3.75 2.5625 C3.04359375 2.27503906 2.3371875 1.98757813 1.609375 1.69140625 C1.07828125 1.46324219 0.5471875 1.23507812 0 1 C0 0.67 0 0.34 0 0 Z " fill="#2C87D0" transform="translate(434,602)"/>
<path d="M0 0 C3.55234558 0.60897353 6.7331874 1.45733849 10 3 C10.33 3.66 10.66 4.32 11 5 C9.35153231 4.55123384 7.70626545 4.09069512 6.0625 3.625 C5.14597656 3.36976563 4.22945313 3.11453125 3.28515625 2.8515625 C1 2 1 2 0 0 Z " fill="#2A7EC1" transform="translate(423,597)"/>
<path d="M0 0 C3.34373475 0.55728913 6.03312999 1.35173889 9 3 C9 3.33 9 3.66 9 4 C7.02 4 5.04 4 3 4 C2.67 3.01 2.34 2.02 2 1 C1.34 0.67 0.68 0.34 0 0 Z " fill="#2A7EC0" transform="translate(503,593)"/>
<path d="M0 0 C1.65 0 3.3 0 5 0 C4.67 1.32 4.34 2.64 4 4 C2.68 4 1.36 4 0 4 C0 2.68 0 1.36 0 0 Z " fill="#0C49A2" transform="translate(788,903)"/>
<path d="M0 0 C3 1 3 1 4 3 C2.1875 4.0625 2.1875 4.0625 0 5 C-0.99 4.67 -1.98 4.34 -3 4 C-2.34 4 -1.68 4 -1 4 C-0.67 2.68 -0.34 1.36 0 0 Z " fill="#278EDE" transform="translate(393,745)"/>
<path d="M0 0 C0.66 0 1.32 0 2 0 C1.67 2.64 1.34 5.28 1 8 C0.34 8 -0.32 8 -1 8 C-0.67 5.36 -0.34 2.72 0 0 Z " fill="#308DD4" transform="translate(1034,688)"/>
<path d="M0 0 C2.97 0.33 5.94 0.66 9 1 C9.33 1.99 9.66 2.98 10 4 C6.7 3.01 3.4 2.02 0 1 C0 0.67 0 0.34 0 0 Z " fill="#061E3B" transform="translate(574,622)"/>
<path d="M0 0 C2.52588702 2.36292656 3.88820837 3.66462511 5 7 C4.01 7.495 4.01 7.495 3 8 C0.37613513 4.93882432 0 4.26826873 0 0 Z " fill="#2D82C3" transform="translate(1044,536)"/>
<path d="M0 0 C2.4375 0.8125 2.4375 0.8125 5 2 C5.33 2.99 5.66 3.98 6 5 C4.35 4.67 2.7 4.34 1 4 C0.67 2.68 0.34 1.36 0 0 Z " fill="#2C87CF" transform="translate(1019,511)"/>
</svg>
